<svg width="19" height="19" viewBox="0 0 19 19" fill="none" xmlns="http://www.w3.org/2000/svg">
<g clip-path="url(#clip0_1_671)">
<path d="M9.33011 4.32091C10.7409 4.32091 12.067 4.94476 13.0409 5.92091V5.92399C13.0409 5.45553 13.3563 5.10245 13.794 5.10245H13.9055C14.5909 5.10245 14.7309 5.75014 14.7309 5.95553L14.7347 13.244C14.6863 13.7217 15.227 13.9678 15.5263 13.6617C16.6963 12.4586 18.097 7.4786 14.7986 4.59245C11.7247 1.90245 7.60088 2.34553 5.40703 3.85783C3.07549 5.4663 1.58319 9.02553 3.03319 12.3686C4.61319 16.0148 9.13396 17.1009 11.8209 16.0178C13.1816 15.4678 13.8101 17.3071 12.397 17.9078C10.2616 18.8186 4.31857 18.7263 1.54319 13.9171C-0.332968 10.6701 -0.232968 4.9563 4.74165 1.99629C8.54703 -0.267551 13.5647 0.359372 16.5893 3.5186C19.7516 6.82168 19.5678 13.0063 16.4824 15.4117C15.0855 16.504 13.0086 15.4401 13.0224 13.8494L13.0078 13.3278C12.0347 14.294 10.7401 14.8571 9.32934 14.8571C6.54088 14.8571 4.08857 12.404 4.08857 9.61707C4.08857 6.80245 6.54165 4.32091 9.33011 4.32091ZM12.8386 9.41553C12.7332 7.37476 11.2186 6.14706 9.38934 6.14706H9.32011C7.20857 6.14706 6.03703 7.80783 6.03703 9.69322C6.03703 11.8063 7.45396 13.1401 9.31088 13.1401C11.3824 13.1401 12.7447 11.6224 12.8432 9.82783L12.8386 9.41553Z" fill="#D9D9D9"/>
</g>
<defs>
<clipPath id="clip0_1_671">
<rect width="18.4615" height="18.4615" fill="white" transform="translate(0.418457 0.269287)"/>
</clipPath>
</defs>
</svg>
