<svg width="202" height="25" viewBox="0 0 202 25" fill="none" xmlns="http://www.w3.org/2000/svg">
<rect width="202" height="24.3793" fill="#2A2A2A"/>
<path d="M10.0243 16.1896V8.96875H7.18489V7.62248H14.4547V8.96875H11.6153V16.1896H10.0243ZM22.6902 7.62248H24.2812V16.1896H22.6902V7.62248ZM18.2597 16.1896H16.6687V7.62248H18.2597V16.1896ZM22.8125 12.518H18.1251V11.1595H22.8125V12.518ZM29.0654 11.184H33.3245V12.4935H29.0654V11.184ZM29.1878 14.8556H34.0221V16.1896H27.5967V7.62248H33.8508V8.95651H29.1878V14.8556Z" fill="#D9D9D9"/>
<rect width="74.5696" height="14.6293" transform="translate(38.7153 4.875)" fill="#D9D9D9"/>
<path d="M42.1193 16.1896V7.62248H45.6441C46.4029 7.62248 47.0515 7.74487 47.59 7.98965C48.1367 8.23442 48.5569 8.58527 48.8506 9.04218C49.1444 9.4991 49.2912 10.0417 49.2912 10.6699C49.2912 11.2982 49.1444 11.8408 48.8506 12.2977C48.5569 12.7546 48.1367 13.1055 47.59 13.3502C47.0515 13.595 46.4029 13.7174 45.6441 13.7174H43.0005L43.7103 12.9708V16.1896H42.1193ZM43.7103 13.1422L43.0005 12.3711H45.5706C46.2723 12.3711 46.7986 12.2243 47.1494 11.9305C47.5084 11.6286 47.688 11.2084 47.688 10.6699C47.688 10.1233 47.5084 9.70308 47.1494 9.40935C46.7986 9.11562 46.2723 8.96875 45.5706 8.96875H43.0005L43.7103 8.18547V13.1422ZM51.9 16.1896V7.62248H55.4247C56.1836 7.62248 56.8322 7.74487 57.3707 7.98965C57.9174 8.23442 58.3376 8.58527 58.6313 9.04218C58.925 9.4991 59.0719 10.0417 59.0719 10.6699C59.0719 11.2982 58.925 11.8408 58.6313 12.2977C58.3376 12.7465 57.9174 13.0932 57.3707 13.338C56.8322 13.5746 56.1836 13.6929 55.4247 13.6929H52.7812L53.491 12.9708V16.1896H51.9ZM57.5053 16.1896L55.3391 13.081H57.0403L59.2188 16.1896H57.5053ZM53.491 13.1422L52.7812 12.3834H55.3513C56.053 12.3834 56.5793 12.2324 56.9301 11.9305C57.2891 11.6286 57.4686 11.2084 57.4686 10.6699C57.4686 10.1233 57.2891 9.70308 56.9301 9.40935C56.5793 9.11562 56.053 8.96875 55.3513 8.96875H52.7812L53.491 8.18547V13.1422ZM65.8862 16.312C65.2171 16.312 64.6011 16.2019 64.0381 15.9816C63.4752 15.7613 62.9856 15.4553 62.5695 15.0637C62.1534 14.6639 61.8311 14.1988 61.6026 13.6684C61.3742 13.1299 61.2599 12.5425 61.2599 11.9061C61.2599 11.2696 61.3742 10.6863 61.6026 10.1559C61.8311 9.61741 62.1534 9.15233 62.5695 8.76069C62.9856 8.36089 63.4752 8.05084 64.0381 7.83054C64.6011 7.61024 65.2131 7.5001 65.874 7.5001C66.543 7.5001 67.155 7.61024 67.7098 7.83054C68.2728 8.05084 68.7623 8.36089 69.1784 8.76069C69.5946 9.15233 69.9168 9.61741 70.1453 10.1559C70.3738 10.6863 70.488 11.2696 70.488 11.9061C70.488 12.5425 70.3738 13.1299 70.1453 13.6684C69.9168 14.207 69.5946 14.672 69.1784 15.0637C68.7623 15.4553 68.2728 15.7613 67.7098 15.9816C67.155 16.2019 66.5471 16.312 65.8862 16.312ZM65.874 14.9168C66.3064 14.9168 66.7062 14.8434 67.0734 14.6965C67.4405 14.5496 67.7587 14.3416 68.028 14.0723C68.2972 13.7949 68.5053 13.4767 68.6522 13.1177C68.8072 12.7505 68.8847 12.3467 68.8847 11.9061C68.8847 11.4655 68.8072 11.0657 68.6522 10.7067C68.5053 10.3395 68.2972 10.0213 68.028 9.75203C67.7587 9.47462 67.4405 9.26248 67.0734 9.11562C66.7062 8.96875 66.3064 8.89532 65.874 8.89532C65.4415 8.89532 65.0417 8.96875 64.6746 9.11562C64.3156 9.26248 63.9973 9.47462 63.7199 9.75203C63.4507 10.0213 63.2385 10.3395 63.0835 10.7067C62.9367 11.0657 62.8632 11.4655 62.8632 11.9061C62.8632 12.3385 62.9367 12.7383 63.0835 13.1055C63.2385 13.4726 63.4507 13.7949 63.7199 14.0723C63.9892 14.3416 64.3074 14.5496 64.6746 14.6965C65.0417 14.8434 65.4415 14.9168 65.874 14.9168ZM73.1944 16.1896V7.62248H76.9394C77.8696 7.62248 78.6855 7.80199 79.3872 8.16099C80.0889 8.51999 80.6355 9.01771 81.0272 9.65412C81.4188 10.2905 81.6146 11.0412 81.6146 11.9061C81.6146 12.7628 81.4188 13.5134 81.0272 14.158C80.6355 14.7944 80.0889 15.2921 79.3872 15.6511C78.6855 16.0101 77.8696 16.1896 76.9394 16.1896H73.1944ZM74.7854 14.8434H76.866C77.5106 14.8434 78.0654 14.721 78.5305 14.4762C79.0037 14.2314 79.3668 13.8887 79.6197 13.4481C79.8808 13.0076 80.0114 12.4935 80.0114 11.9061C80.0114 11.3104 79.8808 10.7964 79.6197 10.364C79.3668 9.92338 79.0037 9.58069 78.5305 9.33591C78.0654 9.09114 77.5106 8.96875 76.866 8.96875H74.7854V14.8434ZM88.0095 16.312C86.8345 16.312 85.9126 15.9816 85.2435 15.3207C84.5826 14.6598 84.2522 13.7052 84.2522 12.4568V7.62248H85.8432V12.3956C85.8432 13.2768 86.0309 13.9173 86.4062 14.3171C86.7897 14.7169 87.3282 14.9168 88.0217 14.9168C88.7152 14.9168 89.2497 14.7169 89.625 14.3171C90.0003 13.9173 90.188 13.2768 90.188 12.3956V7.62248H91.7545V12.4568C91.7545 13.7052 91.42 14.6598 90.751 15.3207C90.0901 15.9816 89.1762 16.312 88.0095 16.312ZM98.968 16.312C98.3153 16.312 97.7074 16.206 97.1445 15.9938C96.5896 15.7735 96.1042 15.4675 95.688 15.0759C95.2801 14.6761 94.9619 14.207 94.7334 13.6684C94.505 13.1299 94.3907 12.5425 94.3907 11.9061C94.3907 11.2696 94.505 10.6822 94.7334 10.1437C94.9619 9.60517 95.2842 9.14009 95.7003 8.74845C96.1164 8.34865 96.6019 8.04268 97.1567 7.83054C97.7115 7.61024 98.3194 7.5001 98.9803 7.5001C99.682 7.5001 100.322 7.62248 100.902 7.86726C101.481 8.10388 101.971 8.4588 102.37 8.93203L101.342 9.8989C101.032 9.56437 100.686 9.31552 100.302 9.15233C99.9186 8.98099 99.5025 8.89532 99.0537 8.89532C98.6049 8.89532 98.1929 8.96875 97.8176 9.11562C97.4504 9.26248 97.1281 9.47054 96.8507 9.73979C96.5815 10.009 96.3693 10.3273 96.2143 10.6944C96.0674 11.0616 95.994 11.4655 95.994 11.9061C95.994 12.3467 96.0674 12.7505 96.2143 13.1177C96.3693 13.4849 96.5815 13.8031 96.8507 14.0723C97.1281 14.3416 97.4504 14.5496 97.8176 14.6965C98.1929 14.8434 98.6049 14.9168 99.0537 14.9168C99.5025 14.9168 99.9186 14.8352 100.302 14.672C100.686 14.5007 101.032 14.2437 101.342 13.901L102.37 14.8801C101.971 15.3452 101.481 15.7001 100.902 15.9449C100.322 16.1896 99.6779 16.312 98.968 16.312ZM106.557 16.1896V8.96875H103.718V7.62248H110.988V8.96875H108.148V16.1896H106.557Z" fill="#2A2A2A"/>
<path d="M118.271 16.1896V7.62248H121.795C122.554 7.62248 123.203 7.74487 123.741 7.98965C124.288 8.23442 124.708 8.58527 125.002 9.04218C125.296 9.4991 125.443 10.0417 125.443 10.6699C125.443 11.2982 125.296 11.8408 125.002 12.2977C124.708 12.7546 124.288 13.1055 123.741 13.3502C123.203 13.595 122.554 13.7174 121.795 13.7174H119.152L119.862 12.9708V16.1896H118.271ZM119.862 13.1422L119.152 12.3711H121.722C122.424 12.3711 122.95 12.2243 123.301 11.9305C123.66 11.6286 123.839 11.2084 123.839 10.6699C123.839 10.1233 123.66 9.70308 123.301 9.40935C122.95 9.11562 122.424 8.96875 121.722 8.96875H119.152L119.862 8.18547V13.1422ZM128.051 16.1896V7.62248H129.642V14.8434H134.122V16.1896H128.051ZM135.198 16.1896L139.053 7.62248H140.62L144.487 16.1896H142.823L139.506 8.46696H140.142L136.838 16.1896H135.198ZM136.973 14.207L137.401 12.9586H142.027L142.456 14.207H136.973ZM147.904 16.1896V8.96875H145.065V7.62248H152.335V8.96875H149.495V16.1896H147.904ZM156.005 11.5634H160.276V12.9096H156.005V11.5634ZM156.14 16.1896H154.549V7.62248H160.803V8.95651H156.14V16.1896ZM167.28 16.312C166.611 16.312 165.995 16.2019 165.432 15.9816C164.869 15.7613 164.379 15.4553 163.963 15.0637C163.547 14.6639 163.225 14.1988 162.996 13.6684C162.768 13.1299 162.654 12.5425 162.654 11.9061C162.654 11.2696 162.768 10.6863 162.996 10.1559C163.225 9.61741 163.547 9.15233 163.963 8.76069C164.379 8.36089 164.869 8.05084 165.432 7.83054C165.995 7.61024 166.607 7.5001 167.268 7.5001C167.937 7.5001 168.549 7.61024 169.104 7.83054C169.667 8.05084 170.156 8.36089 170.572 8.76069C170.988 9.15233 171.311 9.61741 171.539 10.1559C171.768 10.6863 171.882 11.2696 171.882 11.9061C171.882 12.5425 171.768 13.1299 171.539 13.6684C171.311 14.207 170.988 14.672 170.572 15.0637C170.156 15.4553 169.667 15.7613 169.104 15.9816C168.549 16.2019 167.941 16.312 167.28 16.312ZM167.268 14.9168C167.7 14.9168 168.1 14.8434 168.467 14.6965C168.834 14.5496 169.153 14.3416 169.422 14.0723C169.691 13.7949 169.899 13.4767 170.046 13.1177C170.201 12.7505 170.278 12.3467 170.278 11.9061C170.278 11.4655 170.201 11.0657 170.046 10.7067C169.899 10.3395 169.691 10.0213 169.422 9.75203C169.153 9.47462 168.834 9.26248 168.467 9.11562C168.1 8.96875 167.7 8.89532 167.268 8.89532C166.835 8.89532 166.436 8.96875 166.068 9.11562C165.709 9.26248 165.391 9.47462 165.114 9.75203C164.844 10.0213 164.632 10.3395 164.477 10.7067C164.33 11.0657 164.257 11.4655 164.257 11.9061C164.257 12.3385 164.33 12.7383 164.477 13.1055C164.632 13.4726 164.844 13.7949 165.114 14.0723C165.383 14.3416 165.701 14.5496 166.068 14.6965C166.436 14.8434 166.835 14.9168 167.268 14.9168ZM174.588 16.1896V7.62248H178.113C178.872 7.62248 179.52 7.74487 180.059 7.98965C180.606 8.23442 181.026 8.58527 181.319 9.04218C181.613 9.4991 181.76 10.0417 181.76 10.6699C181.76 11.2982 181.613 11.8408 181.319 12.2977C181.026 12.7465 180.606 13.0932 180.059 13.338C179.52 13.5746 178.872 13.6929 178.113 13.6929H175.469L176.179 12.9708V16.1896H174.588ZM180.194 16.1896L178.027 13.081H179.728L181.907 16.1896H180.194ZM176.179 13.1422L175.469 12.3834H178.039C178.741 12.3834 179.267 12.2324 179.618 11.9305C179.977 11.6286 180.157 11.2084 180.157 10.6699C180.157 10.1233 179.977 9.70308 179.618 9.40935C179.267 9.11562 178.741 8.96875 178.039 8.96875H175.469L176.179 8.18547V13.1422ZM184.56 16.1896V7.62248H185.87L189.615 13.8765H188.929L192.613 7.62248H193.923L193.935 16.1896H192.43L192.417 9.98457H192.736L189.602 15.2105H188.893L185.71 9.98457H186.078V16.1896H184.56Z" fill="#D9D9D9"/>
</svg>
