<svg width="149" height="176" viewBox="0 0 149 176" fill="none" xmlns="http://www.w3.org/2000/svg">
<g filter="url(#filter0_d_946_2163)">
<rect x="8" y="8" width="124.718" height="152" rx="19.4872" fill="#FEFEFE" shape-rendering="crispEdges"/>
<path d="M52.5767 54.7693C50.5488 54.7693 48.9229 56.3952 48.9229 58.4231V80.3462C48.9229 82.3741 50.5488 84.0001 52.5767 84.0001H81.8074C83.8353 84.0001 85.4613 82.3741 85.4613 80.3462V58.4231C85.4613 56.3952 83.8353 54.7693 81.8074 54.7693H52.5767ZM52.5767 58.4231H81.8074V65.7308H52.5767V58.4231ZM52.5767 69.3847H59.8844V73.0385H52.5767V69.3847ZM63.5382 69.3847H81.8074V73.0385H63.5382V69.3847ZM52.5767 76.6924H70.8459V80.3462H52.5767V76.6924ZM74.4998 76.6924H81.8074V80.3462H74.4998V76.6924Z" fill="#2A2A2A"/>
<path d="M32.699 105.411H27.4764V109.289H32.0364V111.297H27.4764V116.539H25.0015V103.404H32.699V105.411ZM34.7261 116.539V102.761H37.0645V116.539H34.7261ZM44.7379 112.29H43.5297C42.9191 112.29 42.4514 112.42 42.1266 112.68C41.8019 112.927 41.6395 113.245 41.6395 113.635C41.6395 114.466 42.1201 114.882 43.0815 114.882C43.6012 114.882 44.0039 114.733 44.2897 114.434C44.5885 114.122 44.7379 113.719 44.7379 113.226V112.29ZM39.9441 109.328V107.165C40.6846 106.711 41.7499 106.483 43.14 106.483C45.8162 106.483 47.1543 107.73 47.1543 110.225V116.539H44.8354V115.35C44.3807 116.194 43.5232 116.617 42.2631 116.617C41.3277 116.617 40.5807 116.344 40.022 115.798C39.4764 115.252 39.2036 114.564 39.2036 113.732C39.2036 112.797 39.5543 112.063 40.2559 111.53C40.9574 110.998 41.9707 110.731 43.2959 110.731H44.7379V110.127C44.7379 109.582 44.595 109.166 44.3092 108.88C44.0234 108.594 43.5362 108.451 42.8477 108.451C41.7954 108.451 40.8275 108.744 39.9441 109.328ZM55.4722 106.97V109.036C54.8226 108.646 54.0106 108.451 53.0363 108.451C52.6335 108.451 52.3152 108.542 52.0814 108.724C51.8605 108.893 51.7501 109.114 51.7501 109.387C51.7501 109.491 51.7631 109.588 51.7891 109.679C51.8281 109.77 51.8865 109.861 51.9645 109.952C52.0554 110.03 52.1399 110.101 52.2178 110.166C52.2958 110.231 52.4062 110.303 52.5491 110.381C52.692 110.446 52.8154 110.504 52.9193 110.556C53.0233 110.608 53.1662 110.673 53.3481 110.751C53.5299 110.829 53.6728 110.894 53.7768 110.946C54.4653 111.284 55.011 111.66 55.4137 112.076C55.8164 112.492 56.0178 113.031 56.0178 113.693C56.0178 114.616 55.6865 115.337 55.024 115.857C54.3614 116.376 53.478 116.636 52.3737 116.636C51.1525 116.636 50.1652 116.435 49.4116 116.032V113.888C50.2821 114.473 51.224 114.765 52.2373 114.765C52.666 114.765 52.9973 114.687 53.2311 114.531C53.478 114.363 53.6014 114.135 53.6014 113.849C53.6014 113.68 53.5624 113.531 53.4845 113.401C53.4065 113.258 53.2571 113.122 53.0363 112.992C52.8154 112.862 52.64 112.771 52.5101 112.719C52.3932 112.654 52.1528 112.544 51.7891 112.388C51.7501 112.375 51.7176 112.362 51.6916 112.349C51.6787 112.336 51.6527 112.323 51.6137 112.31C51.5747 112.297 51.5422 112.284 51.5163 112.271C50.0742 111.621 49.3532 110.686 49.3532 109.465C49.3532 108.555 49.6975 107.841 50.386 107.321C51.0746 106.801 51.9385 106.542 52.9778 106.542C53.9781 106.542 54.8096 106.685 55.4722 106.97ZM60.2223 102.761V108.334C60.755 107.139 61.7618 106.542 63.2428 106.542C64.2042 106.542 64.9772 106.847 65.5618 107.458C66.1594 108.055 66.4582 108.926 66.4582 110.069V116.539H64.1198V110.478C64.1198 109.854 63.9574 109.367 63.6326 109.017C63.3208 108.666 62.9115 108.49 62.4049 108.49C61.8462 108.49 61.3396 108.705 60.8849 109.133C60.4432 109.562 60.2223 110.264 60.2223 111.238V116.539H57.8839V102.761H60.2223ZM83.4019 103.95V106.347C82.4145 105.775 81.3232 105.489 80.128 105.489C78.9328 105.489 77.9325 105.899 77.127 106.717C76.3345 107.523 75.9383 108.607 75.9383 109.971C75.9383 111.335 76.3345 112.42 77.127 113.226C77.9325 114.031 78.9783 114.434 80.2644 114.434C81.4986 114.434 82.5509 114.109 83.4213 113.46V115.915C82.6159 116.435 81.4856 116.694 80.0306 116.694C78.0819 116.694 76.4709 116.084 75.1978 114.863C73.9376 113.628 73.3075 111.998 73.3075 109.971C73.3075 107.984 73.9311 106.366 75.1783 105.119C76.4384 103.859 78.0559 103.229 80.0306 103.229C81.4726 103.229 82.5964 103.469 83.4019 103.95ZM90.6584 112.29H89.4502C88.8396 112.29 88.3719 112.42 88.0471 112.68C87.7223 112.927 87.5599 113.245 87.5599 113.635C87.5599 114.466 88.0406 114.882 89.002 114.882C89.5216 114.882 89.9244 114.733 90.2102 114.434C90.509 114.122 90.6584 113.719 90.6584 113.226V112.29ZM85.8646 109.328V107.165C86.6051 106.711 87.6704 106.483 89.0604 106.483C91.7367 106.483 93.0748 107.73 93.0748 110.225V116.539H90.7558V115.35C90.3011 116.194 89.4437 116.617 88.1835 116.617C87.2481 116.617 86.5011 116.344 85.9425 115.798C85.3969 115.252 85.124 114.564 85.124 113.732C85.124 112.797 85.4748 112.063 86.1763 111.53C86.8779 110.998 87.8912 110.731 89.2163 110.731H90.6584V110.127C90.6584 109.582 90.5155 109.166 90.2297 108.88C89.9439 108.594 89.4567 108.451 88.7681 108.451C87.7158 108.451 86.748 108.744 85.8646 109.328ZM97.8265 106.659V108.412C98.2812 107.191 99.1126 106.581 100.321 106.581C100.594 106.581 100.815 106.6 100.983 106.639V108.9C100.685 108.77 100.353 108.705 99.9896 108.705C99.353 108.705 98.8333 108.965 98.4306 109.484C98.0278 110.004 97.8265 110.653 97.8265 111.433V116.539H95.4685L95.488 106.659H97.8265ZM106.606 114.668C107.308 114.668 107.892 114.401 108.36 113.869C108.828 113.323 109.062 112.537 109.062 111.511C109.062 110.511 108.815 109.764 108.321 109.27C107.827 108.763 107.262 108.51 106.626 108.51C105.95 108.51 105.379 108.789 104.911 109.348C104.456 109.893 104.229 110.66 104.229 111.647C104.229 112.544 104.456 113.271 104.911 113.83C105.366 114.388 105.931 114.668 106.606 114.668ZM109.062 102.761H111.4V116.539H109.062V114.999C108.386 116.116 107.386 116.675 106.061 116.675C104.761 116.675 103.729 116.181 102.962 115.194C102.209 114.207 101.832 113.011 101.832 111.608C101.832 110.049 102.228 108.815 103.021 107.906C103.826 106.983 104.852 106.522 106.1 106.522C107.386 106.522 108.373 107.074 109.062 108.179V102.761ZM119.833 106.97V109.036C119.184 108.646 118.372 108.451 117.397 108.451C116.995 108.451 116.676 108.542 116.442 108.724C116.222 108.893 116.111 109.114 116.111 109.387C116.111 109.491 116.124 109.588 116.15 109.679C116.189 109.77 116.247 109.861 116.325 109.952C116.416 110.03 116.501 110.101 116.579 110.166C116.657 110.231 116.767 110.303 116.91 110.381C117.053 110.446 117.176 110.504 117.28 110.556C117.384 110.608 117.527 110.673 117.709 110.751C117.891 110.829 118.034 110.894 118.138 110.946C118.826 111.284 119.372 111.66 119.775 112.076C120.177 112.492 120.379 113.031 120.379 113.693C120.379 114.616 120.047 115.337 119.385 115.857C118.722 116.376 117.839 116.636 116.735 116.636C115.513 116.636 114.526 116.435 113.773 116.032V113.888C114.643 114.473 115.585 114.765 116.598 114.765C117.027 114.765 117.358 114.687 117.592 114.531C117.839 114.363 117.962 114.135 117.962 113.849C117.962 113.68 117.923 113.531 117.845 113.401C117.767 113.258 117.618 113.122 117.397 112.992C117.176 112.862 117.001 112.771 116.871 112.719C116.754 112.654 116.514 112.544 116.15 112.388C116.111 112.375 116.079 112.362 116.053 112.349C116.04 112.336 116.014 112.323 115.975 112.31C115.936 112.297 115.903 112.284 115.877 112.271C114.435 111.621 113.714 110.686 113.714 109.465C113.714 108.555 114.058 107.841 114.747 107.321C115.436 106.801 116.299 106.542 117.339 106.542C118.339 106.542 119.171 106.685 119.833 106.97Z" fill="#2A2A2A"/>
<circle cx="36" cy="36" r="11.5" stroke="black"/>
<circle cx="36" cy="36" r="10" fill="#FEFEFE"/>
</g>
<defs>
<filter id="filter0_d_946_2163" x="0.205128" y="0.205128" width="148.102" height="175.385" filterUnits="userSpaceOnUse" color-interpolation-filters="sRGB">
<feFlood flood-opacity="0" result="BackgroundImageFix"/>
<feColorMatrix in="SourceAlpha" type="matrix" values="0 0 0 0 0 0 0 0 0 0 0 0 0 0 0 0 0 0 127 0" result="hardAlpha"/>
<feOffset dx="3.89744" dy="3.89744"/>
<feGaussianBlur stdDeviation="5.84615"/>
<feComposite in2="hardAlpha" operator="out"/>
<feColorMatrix type="matrix" values="0 0 0 0 0.683333 0 0 0 0 0.674792 0 0 0 0 0.674792 0 0 0 0.5 0"/>
<feBlend mode="normal" in2="BackgroundImageFix" result="effect1_dropShadow_946_2163"/>
<feBlend mode="normal" in="SourceGraphic" in2="effect1_dropShadow_946_2163" result="shape"/>
</filter>
</defs>
</svg>
