<svg width="23" height="23" viewBox="0 0 23 23" fill="none" xmlns="http://www.w3.org/2000/svg">
<g clip-path="url(#clip0_1_663)">
<path d="M22.9643 11.5679C22.9643 5.44974 18.0055 0.490967 11.8883 0.490967C5.77109 0.490967 0.812317 5.44974 0.812317 11.5679C0.812317 17.0953 4.86278 21.6774 10.1575 22.5082V14.7691H7.34586V11.567H10.1575V9.12727C10.1575 6.35066 11.8117 4.81743 14.3409 4.81743C15.5529 4.81743 16.8203 5.03343 16.8203 5.03343V7.75927H15.4246C14.0492 7.75927 13.62 8.61312 13.62 9.48912V11.5679H16.692L16.2009 14.77H13.62V22.5091C18.9148 21.6784 22.9652 17.0962 22.9652 11.5679H22.9643Z" fill="#D9D9D9"/>
</g>
<defs>
<clipPath id="clip0_1_663">
<rect width="22.1529" height="22.0182" fill="white" transform="translate(0.812317 0.490967)"/>
</clipPath>
</defs>
</svg>
