<svg width="40" height="35" viewBox="0 0 40 35" fill="none" xmlns="http://www.w3.org/2000/svg">
<path d="M10.03 7.72L25.81 1.015C25.9612 0.950744 26.1237 0.917421 26.288 0.917004C26.529 0.916821 26.7647 0.987803 26.9656 1.12105C27.1664 1.25429 27.3235 1.44387 27.417 1.666L29.237 5.958H21.132C20.971 5.95761 20.8115 5.98902 20.6627 6.05045C20.5139 6.11187 20.3787 6.20209 20.2649 6.31592C20.1511 6.42975 20.0609 6.56495 19.9994 6.71375C19.938 6.86255 19.9066 7.02202 19.907 7.183V32.92C19.9081 33.2077 20.0108 33.4857 20.197 33.705C20.0266 33.6536 19.8695 33.5654 19.7368 33.4467C19.6041 33.328 19.499 33.1817 19.429 33.018L9.382 9.329C9.31869 9.18083 9.28524 9.02163 9.28355 8.86051C9.28187 8.69939 9.31198 8.53952 9.37217 8.39006C9.43237 8.2406 9.52146 8.10448 9.63434 7.9895C9.74722 7.87452 9.88167 7.78294 10.03 7.72ZM10.03 7.72C9.88169 7.78254 9.7482 7.87376 9.63524 7.98842C9.52229 8.10308 9.4331 8.23892 9.3728 8.38815C9.31249 8.53738 9.28226 8.69705 9.28384 8.858C9.28542 9.01894 9.31878 9.17799 9.382 9.326L19.428 33.019C19.5425 33.2849 19.7482 33.5012 20.008 33.629C19.831 33.645 19.6527 33.6219 19.4856 33.5615C19.3185 33.501 19.1667 33.4046 19.041 33.279L0.860001 15.081C0.745922 14.9674 0.655403 14.8323 0.593639 14.6836C0.531875 14.5349 0.50008 14.3755 0.50008 14.2145C0.50008 14.0535 0.531875 13.8941 0.593639 13.7454C0.655403 13.5967 0.745922 13.4616 0.860001 13.348L12.981 1.215C13.0945 1.10097 13.2295 1.01054 13.3781 0.948927C13.5267 0.887311 13.6861 0.85573 13.847 0.856004L13.848 0.854004C14.0088 0.853993 14.168 0.885796 14.3165 0.947581C14.4649 1.00937 14.5997 1.09991 14.713 1.214L17.882 4.385L10.03 7.72ZM22 12H37M22 15H37M22 18H37M22 21H37M22 24H37M22 27H37M22 30H37M20.957 5.958H38.45C39.0299 5.958 39.5 6.42811 39.5 7.008V33.094C39.5 33.6739 39.0299 34.144 38.45 34.144H20.957C20.3771 34.144 19.907 33.6739 19.907 33.094V7.008C19.907 6.42811 20.3771 5.958 20.957 5.958Z" stroke="white" stroke-linecap="round" stroke-linejoin="round"/>
</svg>
