<svg width="149" height="176" viewBox="0 0 149 176" fill="none" xmlns="http://www.w3.org/2000/svg">
<g filter="url(#filter0_d_47_232)">
<rect x="8" y="8" width="124.718" height="152" rx="19.4872" fill="#FEFEFE" shape-rendering="crispEdges"/>
<path d="M52.5771 54.7693C50.5493 54.7693 48.9233 56.3952 48.9233 58.4231V80.3462C48.9233 82.3741 50.5493 84.0001 52.5771 84.0001H81.8079C83.8358 84.0001 85.4617 82.3741 85.4617 80.3462V58.4231C85.4617 56.3952 83.8358 54.7693 81.8079 54.7693H52.5771ZM52.5771 58.4231H81.8079V65.7308H52.5771V58.4231ZM52.5771 69.3847H59.8848V73.0385H52.5771V69.3847ZM63.5387 69.3847H81.8079V73.0385H63.5387V69.3847ZM52.5771 76.6924H70.8464V80.3462H52.5771V76.6924ZM74.5002 76.6924H81.8079V80.3462H74.5002V76.6924Z" fill="#2A2A2A"/>
<path d="M32.6991 105.411H27.4765V109.289H32.0365V111.296H27.4765V116.538H25.0016V103.404H32.6991V105.411ZM34.7262 116.538V102.761H37.0647V116.538H34.7262ZM44.738 112.29H43.5298C42.9192 112.29 42.4516 112.42 42.1268 112.68C41.802 112.927 41.6396 113.245 41.6396 113.635C41.6396 114.466 42.1203 114.882 43.0816 114.882C43.6013 114.882 44.004 114.733 44.2898 114.434C44.5886 114.122 44.738 113.719 44.738 113.226V112.29ZM39.9442 109.328V107.165C40.6847 106.71 41.75 106.483 43.1401 106.483C45.8163 106.483 47.1545 107.73 47.1545 110.225V116.538H44.8355V115.35C44.3808 116.194 43.5233 116.616 42.2632 116.616C41.3278 116.616 40.5808 116.344 40.0221 115.798C39.4765 115.252 39.2037 114.564 39.2037 113.732C39.2037 112.797 39.5545 112.063 40.256 111.53C40.9575 110.998 41.9709 110.731 43.296 110.731H44.738V110.127C44.738 109.582 44.5951 109.166 44.3093 108.88C44.0235 108.594 43.5363 108.451 42.8478 108.451C41.7955 108.451 40.8276 108.744 39.9442 109.328ZM55.4723 106.97V109.036C54.8227 108.646 54.0107 108.451 53.0364 108.451C52.6337 108.451 52.3154 108.542 52.0815 108.724C51.8607 108.893 51.7502 109.114 51.7502 109.387C51.7502 109.491 51.7632 109.588 51.7892 109.679C51.8282 109.77 51.8866 109.861 51.9646 109.952C52.0555 110.03 52.14 110.101 52.2179 110.166C52.2959 110.231 52.4063 110.303 52.5492 110.381C52.6921 110.445 52.8155 110.504 52.9195 110.556C53.0234 110.608 53.1663 110.673 53.3482 110.751C53.5301 110.829 53.673 110.894 53.7769 110.946C54.4654 111.283 55.0111 111.66 55.4138 112.076C55.8166 112.492 56.0179 113.031 56.0179 113.693C56.0179 114.616 55.6866 115.337 55.0241 115.856C54.3615 116.376 53.4781 116.636 52.3738 116.636C51.1526 116.636 50.1653 116.435 49.4118 116.032V113.888C50.2822 114.473 51.2241 114.765 52.2374 114.765C52.6661 114.765 52.9974 114.687 53.2313 114.531C53.4781 114.362 53.6015 114.135 53.6015 113.849C53.6015 113.68 53.5625 113.531 53.4846 113.401C53.4066 113.258 53.2572 113.122 53.0364 112.992C52.8155 112.862 52.6401 112.771 52.5102 112.719C52.3933 112.654 52.153 112.544 51.7892 112.388C51.7502 112.375 51.7178 112.362 51.6918 112.349C51.6788 112.336 51.6528 112.323 51.6138 112.31C51.5748 112.297 51.5424 112.284 51.5164 112.271C50.0743 111.621 49.3533 110.686 49.3533 109.465C49.3533 108.555 49.6976 107.841 50.3861 107.321C51.0747 106.801 51.9386 106.542 52.9779 106.542C53.9783 106.542 54.8097 106.684 55.4723 106.97ZM60.2224 102.761V108.334C60.7551 107.139 61.7619 106.542 63.243 106.542C64.2043 106.542 64.9773 106.847 65.5619 107.457C66.1595 108.055 66.4583 108.925 66.4583 110.069V116.538H64.1199V110.478C64.1199 109.854 63.9575 109.367 63.6327 109.016C63.3209 108.666 62.9117 108.49 62.405 108.49C61.8464 108.49 61.3397 108.705 60.885 109.133C60.4433 109.562 60.2224 110.264 60.2224 111.238V116.538H57.884V102.761H60.2224ZM83.402 103.95V106.347C82.4146 105.775 81.3233 105.489 80.1281 105.489C78.9329 105.489 77.9326 105.898 77.1271 106.717C76.3346 107.522 75.9384 108.607 75.9384 109.971C75.9384 111.335 76.3346 112.42 77.1271 113.226C77.9326 114.031 78.9784 114.434 80.2645 114.434C81.4987 114.434 82.551 114.109 83.4215 113.459V115.915C82.616 116.435 81.4857 116.694 80.0307 116.694C78.082 116.694 76.471 116.084 75.1979 114.863C73.9377 113.628 73.3076 111.998 73.3076 109.971C73.3076 107.984 73.9312 106.366 75.1784 105.119C76.4386 103.859 78.056 103.229 80.0307 103.229C81.4728 103.229 82.5965 103.469 83.402 103.95ZM90.6585 112.29H89.4503C88.8397 112.29 88.372 112.42 88.0472 112.68C87.7225 112.927 87.5601 113.245 87.5601 113.635C87.5601 114.466 88.0407 114.882 89.0021 114.882C89.5218 114.882 89.9245 114.733 90.2103 114.434C90.5091 114.122 90.6585 113.719 90.6585 113.226V112.29ZM85.8647 109.328V107.165C86.6052 106.71 87.6705 106.483 89.0606 106.483C91.7368 106.483 93.0749 107.73 93.0749 110.225V116.538H90.756V115.35C90.3013 116.194 89.4438 116.616 88.1836 116.616C87.2483 116.616 86.5013 116.344 85.9426 115.798C85.397 115.252 85.1242 114.564 85.1242 113.732C85.1242 112.797 85.4749 112.063 86.1765 111.53C86.878 110.998 87.8913 110.731 89.2165 110.731H90.6585V110.127C90.6585 109.582 90.5156 109.166 90.2298 108.88C89.944 108.594 89.4568 108.451 88.7683 108.451C87.716 108.451 86.7481 108.744 85.8647 109.328ZM97.8266 106.658V108.412C98.2813 107.191 99.1128 106.581 100.321 106.581C100.594 106.581 100.815 106.6 100.984 106.639V108.899C100.685 108.77 100.353 108.705 99.9897 108.705C99.3531 108.705 98.8334 108.964 98.4307 109.484C98.028 110.004 97.8266 110.653 97.8266 111.433V116.538H95.4687L95.4881 106.658H97.8266ZM106.606 114.668C107.308 114.668 107.892 114.401 108.36 113.869C108.828 113.323 109.062 112.537 109.062 111.511C109.062 110.51 108.815 109.763 108.321 109.27C107.828 108.763 107.262 108.51 106.626 108.51C105.95 108.51 105.379 108.789 104.911 109.348C104.456 109.893 104.229 110.66 104.229 111.647C104.229 112.544 104.456 113.271 104.911 113.83C105.366 114.388 105.931 114.668 106.606 114.668ZM109.062 102.761H111.4V116.538H109.062V114.999C108.386 116.116 107.386 116.675 106.061 116.675C104.762 116.675 103.729 116.181 102.962 115.194C102.209 114.206 101.832 113.011 101.832 111.608C101.832 110.049 102.228 108.815 103.021 107.906C103.826 106.983 104.852 106.522 106.1 106.522C107.386 106.522 108.373 107.074 109.062 108.178V102.761ZM119.833 106.97V109.036C119.184 108.646 118.372 108.451 117.397 108.451C116.995 108.451 116.676 108.542 116.442 108.724C116.222 108.893 116.111 109.114 116.111 109.387C116.111 109.491 116.124 109.588 116.15 109.679C116.189 109.77 116.248 109.861 116.326 109.952C116.417 110.03 116.501 110.101 116.579 110.166C116.657 110.231 116.767 110.303 116.91 110.381C117.053 110.445 117.177 110.504 117.28 110.556C117.384 110.608 117.527 110.673 117.709 110.751C117.891 110.829 118.034 110.894 118.138 110.946C118.826 111.283 119.372 111.66 119.775 112.076C120.178 112.492 120.379 113.031 120.379 113.693C120.379 114.616 120.048 115.337 119.385 115.856C118.722 116.376 117.839 116.636 116.735 116.636C115.514 116.636 114.526 116.435 113.773 116.032V113.888C114.643 114.473 115.585 114.765 116.598 114.765C117.027 114.765 117.358 114.687 117.592 114.531C117.839 114.362 117.962 114.135 117.962 113.849C117.962 113.68 117.924 113.531 117.846 113.401C117.768 113.258 117.618 113.122 117.397 112.992C117.177 112.862 117.001 112.771 116.871 112.719C116.754 112.654 116.514 112.544 116.15 112.388C116.111 112.375 116.079 112.362 116.053 112.349C116.04 112.336 116.014 112.323 115.975 112.31C115.936 112.297 115.903 112.284 115.877 112.271C114.435 111.621 113.714 110.686 113.714 109.465C113.714 108.555 114.059 107.841 114.747 107.321C115.436 106.801 116.3 106.542 117.339 106.542C118.339 106.542 119.171 106.684 119.833 106.97Z" fill="#2A2A2A"/>
<circle cx="36" cy="36" r="11.5" stroke="black"/>
<circle cx="36" cy="36" r="9" fill="#2A2A2A"/>
</g>
<defs>
<filter id="filter0_d_47_232" x="0.205128" y="0.205128" width="148.103" height="175.385" filterUnits="userSpaceOnUse" color-interpolation-filters="sRGB">
<feFlood flood-opacity="0" result="BackgroundImageFix"/>
<feColorMatrix in="SourceAlpha" type="matrix" values="0 0 0 0 0 0 0 0 0 0 0 0 0 0 0 0 0 0 127 0" result="hardAlpha"/>
<feOffset dx="3.89744" dy="3.89744"/>
<feGaussianBlur stdDeviation="5.84615"/>
<feComposite in2="hardAlpha" operator="out"/>
<feColorMatrix type="matrix" values="0 0 0 0 0.683333 0 0 0 0 0.674792 0 0 0 0 0.674792 0 0 0 0.5 0"/>
<feBlend mode="normal" in2="BackgroundImageFix" result="effect1_dropShadow_47_232"/>
<feBlend mode="normal" in="SourceGraphic" in2="effect1_dropShadow_47_232" result="shape"/>
</filter>
</defs>
</svg>
