<svg width="407" height="49" viewBox="0 0 407 49" fill="none" xmlns="http://www.w3.org/2000/svg">
<rect width="406" height="49" transform="translate(0.658447)" fill="#2A2A2A"/>
<path d="M21.5438 32.5V17.9867H15.8368V15.2809H30.4485V17.9867H24.7416V32.5H21.5438ZM47.0009 15.2809H50.1987V32.5H47.0009V15.2809ZM38.0961 32.5H34.8983V15.2809H38.0961V32.5ZM47.2469 25.1204H37.8256V22.3899H47.2469V25.1204ZM59.8145 22.4391H68.3748V25.0712H59.8145V22.4391ZM60.0605 29.8187H69.777V32.5H56.8626V15.2809H69.4326V17.9621H60.0605V29.8187Z" fill="#D9D9D9"/>
<rect width="148.175" height="29.3243" transform="translate(79.0711 9.83789)" fill="#D9D9D9"/>
<path d="M85.0616 32.5V15.2809H92.1461C93.6712 15.2809 94.9749 15.5269 96.0573 16.0188C97.156 16.5108 98.0006 17.216 98.5909 18.1343C99.1813 19.0527 99.4765 20.1432 99.4765 21.406C99.4765 22.6687 99.1813 23.7592 98.5909 24.6776C98.0006 25.5959 97.156 26.3011 96.0573 26.7931C94.9749 27.2851 93.6712 27.5311 92.1461 27.5311H86.8327L88.2594 26.0305V32.5H85.0616ZM88.2594 26.3749L86.8327 24.8252H91.9985C93.4088 24.8252 94.4665 24.53 95.1717 23.9396C95.8933 23.3329 96.254 22.4883 96.254 21.406C96.254 20.3072 95.8933 19.4627 95.1717 18.8723C94.4665 18.2819 93.4088 17.9867 91.9985 17.9867H86.8327L88.2594 16.4124V26.3749ZM104.72 32.5V15.2809H111.804C113.329 15.2809 114.633 15.5269 115.715 16.0188C116.814 16.5108 117.659 17.216 118.249 18.1343C118.839 19.0527 119.135 20.1432 119.135 21.406C119.135 22.6687 118.839 23.7592 118.249 24.6776C117.659 25.5796 116.814 26.2765 115.715 26.7685C114.633 27.2441 113.329 27.4819 111.804 27.4819H106.491L107.918 26.0305V32.5H104.72ZM115.986 32.5L111.632 26.2519H115.051L119.43 32.5H115.986ZM107.918 26.3749L106.491 24.8498H111.657C113.067 24.8498 114.125 24.5464 114.83 23.9396C115.551 23.3329 115.912 22.4883 115.912 21.406C115.912 20.3072 115.551 19.4627 114.83 18.8723C114.125 18.2819 113.067 17.9867 111.657 17.9867H106.491L107.918 16.4124V26.3749ZM132.831 32.746C131.486 32.746 130.248 32.5246 129.116 32.0818C127.985 31.639 127.001 31.0241 126.164 30.2369C125.328 29.4334 124.68 28.4986 124.221 27.4327C123.762 26.3503 123.532 25.1696 123.532 23.8904C123.532 22.6113 123.762 21.4388 124.221 20.3728C124.68 19.2905 125.328 18.3557 126.164 17.5686C127.001 16.765 127.985 16.1418 129.116 15.6991C130.248 15.2563 131.478 15.0349 132.806 15.0349C134.151 15.0349 135.381 15.2563 136.496 15.6991C137.627 16.1418 138.611 16.765 139.448 17.5686C140.284 18.3557 140.932 19.2905 141.391 20.3728C141.85 21.4388 142.08 22.6113 142.08 23.8904C142.08 25.1696 141.85 26.3503 141.391 27.4327C140.932 28.515 140.284 29.4498 139.448 30.2369C138.611 31.0241 137.627 31.639 136.496 32.0818C135.381 32.5246 134.159 32.746 132.831 32.746ZM132.806 29.9417C133.675 29.9417 134.479 29.7941 135.217 29.499C135.955 29.2038 136.594 28.7856 137.136 28.2444C137.677 27.6868 138.095 27.0473 138.39 26.3257C138.702 25.5878 138.857 24.776 138.857 23.8904C138.857 23.0049 138.702 22.2013 138.39 21.4798C138.095 20.7418 137.677 20.1022 137.136 19.5611C136.594 19.0035 135.955 18.5771 135.217 18.2819C134.479 17.9867 133.675 17.8391 132.806 17.8391C131.937 17.8391 131.133 17.9867 130.395 18.2819C129.674 18.5771 129.034 19.0035 128.477 19.5611C127.936 20.1022 127.509 20.7418 127.198 21.4798C126.902 22.2013 126.755 23.0049 126.755 23.8904C126.755 24.7596 126.902 25.5632 127.198 26.3011C127.509 27.0391 127.936 27.6868 128.477 28.2444C129.018 28.7856 129.657 29.2038 130.395 29.499C131.133 29.7941 131.937 29.9417 132.806 29.9417ZM147.519 32.5V15.2809H155.047C156.916 15.2809 158.556 15.6417 159.966 16.3632C161.377 17.0848 162.475 18.0851 163.263 19.3643C164.05 20.6434 164.443 22.1521 164.443 23.8904C164.443 25.6123 164.05 27.1211 163.263 28.4166C162.475 29.6957 161.377 30.6961 159.966 31.4177C158.556 32.1392 156.916 32.5 155.047 32.5H147.519ZM150.717 29.7941H154.899C156.195 29.7941 157.31 29.5481 158.244 29.0562C159.196 28.5642 159.925 27.8754 160.434 26.9899C160.958 26.1043 161.221 25.0712 161.221 23.8904C161.221 22.6933 160.958 21.6602 160.434 20.791C159.925 19.9054 159.196 19.2167 158.244 18.7247C157.31 18.2327 156.195 17.9867 154.899 17.9867H150.717V29.7941ZM177.296 32.746C174.935 32.746 173.082 32.0818 171.737 30.7535C170.409 29.4252 169.744 27.5065 169.744 24.9974V15.2809H172.942V24.8744C172.942 26.6455 173.319 27.9328 174.074 28.7364C174.845 29.54 175.927 29.9417 177.321 29.9417C178.715 29.9417 179.789 29.54 180.543 28.7364C181.298 27.9328 181.675 26.6455 181.675 24.8744V15.2809H184.824V24.9974C184.824 27.5065 184.151 29.4252 182.806 30.7535C181.478 32.0818 179.641 32.746 177.296 32.746ZM199.322 32.746C198.01 32.746 196.788 32.5328 195.657 32.1064C194.542 31.6636 193.566 31.0487 192.729 30.2615C191.909 29.458 191.27 28.515 190.811 27.4327C190.352 26.3503 190.122 25.1696 190.122 23.8904C190.122 22.6113 190.352 21.4306 190.811 20.3482C191.27 19.2659 191.918 18.3311 192.754 17.544C193.59 16.7404 194.566 16.1254 195.681 15.6991C196.796 15.2563 198.018 15.0349 199.347 15.0349C200.757 15.0349 202.044 15.2809 203.209 15.7728C204.373 16.2484 205.357 16.9618 206.16 17.9129L204.094 19.8562C203.471 19.1839 202.774 18.6837 202.003 18.3557C201.232 18.0113 200.396 17.8391 199.494 17.8391C198.592 17.8391 197.764 17.9867 197.01 18.2819C196.272 18.5771 195.624 18.9953 195.066 19.5365C194.525 20.0776 194.099 20.7172 193.787 21.4552C193.492 22.1931 193.344 23.0049 193.344 23.8904C193.344 24.776 193.492 25.5878 193.787 26.3257C194.099 27.0637 194.525 27.7032 195.066 28.2444C195.624 28.7856 196.272 29.2038 197.01 29.499C197.764 29.7941 198.592 29.9417 199.494 29.9417C200.396 29.9417 201.232 29.7777 202.003 29.4498C202.774 29.1054 203.471 28.5888 204.094 27.9L206.16 29.8679C205.357 30.8027 204.373 31.516 203.209 32.008C202.044 32.5 200.749 32.746 199.322 32.746ZM214.575 32.5V17.9867H208.868V15.2809H223.48V17.9867H217.773V32.5H214.575Z" fill="#2A2A2A"/>
<path d="M237.381 32.5V15.2809H244.465C245.99 15.2809 247.294 15.5269 248.376 16.0188C249.475 16.5108 250.32 17.216 250.91 18.1343C251.5 19.0527 251.796 20.1432 251.796 21.406C251.796 22.6687 251.5 23.7592 250.91 24.6776C250.32 25.5959 249.475 26.3011 248.376 26.7931C247.294 27.2851 245.99 27.5311 244.465 27.5311H239.152L240.579 26.0305V32.5H237.381ZM240.579 26.3749L239.152 24.8252H244.318C245.728 24.8252 246.786 24.53 247.491 23.9396C248.212 23.3329 248.573 22.4883 248.573 21.406C248.573 20.3072 248.212 19.4627 247.491 18.8723C246.786 18.2819 245.728 17.9867 244.318 17.9867H239.152L240.579 16.4124V26.3749ZM257.039 32.5V15.2809H260.237V29.7941H269.24V32.5H257.039ZM271.403 32.5L279.152 15.2809H282.3L290.074 32.5H286.728L280.062 16.9782H281.341L274.699 32.5H271.403ZM274.97 28.515L275.831 26.0059H285.129L285.99 28.515H274.97ZM296.942 32.5V17.9867H291.235V15.2809H305.846V17.9867H300.139V32.5H296.942ZM313.223 23.2017H321.808V25.9075H313.223V23.2017ZM313.494 32.5H310.296V15.2809H322.866V17.9621H313.494V32.5ZM335.885 32.746C334.54 32.746 333.302 32.5246 332.17 32.0818C331.039 31.639 330.055 31.0241 329.218 30.2369C328.382 29.4334 327.734 28.4986 327.275 27.4327C326.816 26.3503 326.586 25.1696 326.586 23.8904C326.586 22.6113 326.816 21.4388 327.275 20.3728C327.734 19.2905 328.382 18.3557 329.218 17.5686C330.055 16.765 331.039 16.1418 332.17 15.6991C333.302 15.2563 334.532 15.0349 335.86 15.0349C337.205 15.0349 338.435 15.2563 339.55 15.6991C340.681 16.1418 341.665 16.765 342.502 17.5686C343.338 18.3557 343.986 19.2905 344.445 20.3728C344.904 21.4388 345.134 22.6113 345.134 23.8904C345.134 25.1696 344.904 26.3503 344.445 27.4327C343.986 28.515 343.338 29.4498 342.502 30.2369C341.665 31.0241 340.681 31.639 339.55 32.0818C338.435 32.5246 337.213 32.746 335.885 32.746ZM335.86 29.9417C336.729 29.9417 337.533 29.7941 338.271 29.499C339.009 29.2038 339.648 28.7856 340.189 28.2444C340.731 27.6868 341.149 27.0473 341.444 26.3257C341.756 25.5878 341.911 24.776 341.911 23.8904C341.911 23.0049 341.756 22.2013 341.444 21.4798C341.149 20.7418 340.731 20.1022 340.189 19.5611C339.648 19.0035 339.009 18.5771 338.271 18.2819C337.533 17.9867 336.729 17.8391 335.86 17.8391C334.991 17.8391 334.187 17.9867 333.449 18.2819C332.728 18.5771 332.088 19.0035 331.531 19.5611C330.99 20.1022 330.563 20.7418 330.252 21.4798C329.956 22.2013 329.809 23.0049 329.809 23.8904C329.809 24.7596 329.956 25.5632 330.252 26.3011C330.563 27.0391 330.99 27.6868 331.531 28.2444C332.072 28.7856 332.711 29.2038 333.449 29.499C334.187 29.7941 334.991 29.9417 335.86 29.9417ZM350.573 32.5V15.2809H357.658C359.183 15.2809 360.487 15.5269 361.569 16.0188C362.668 16.5108 363.512 17.216 364.103 18.1343C364.693 19.0527 364.988 20.1432 364.988 21.406C364.988 22.6687 364.693 23.7592 364.103 24.6776C363.512 25.5796 362.668 26.2765 361.569 26.7685C360.487 27.2441 359.183 27.4819 357.658 27.4819H352.344L353.771 26.0305V32.5H350.573ZM361.84 32.5L357.486 26.2519H360.905L365.283 32.5H361.84ZM353.771 26.3749L352.344 24.8498H357.51C358.921 24.8498 359.978 24.5464 360.683 23.9396C361.405 23.3329 361.766 22.4883 361.766 21.406C361.766 20.3072 361.405 19.4627 360.683 18.8723C359.978 18.2819 358.921 17.9867 357.51 17.9867H352.344L353.771 16.4124V26.3749ZM370.616 32.5V15.2809H373.248L380.775 27.8508H379.398L386.802 15.2809H389.434L389.459 32.5H386.433L386.408 20.0284H387.048L380.751 30.5321H379.324L372.928 20.0284H373.666V32.5H370.616Z" fill="#D9D9D9"/>
</svg>
