<svg width="23" height="23" viewBox="0 0 23 23" fill="none" xmlns="http://www.w3.org/2000/svg">
<g clip-path="url(#clip0_1_661)">
<path d="M11.7354 0.707031C5.61537 0.707031 0.658447 5.66672 0.658447 11.784C0.658447 16.679 3.83199 20.8301 8.23229 22.2932C8.78614 22.3975 8.98922 22.055 8.98922 21.7606C8.98922 21.4975 8.97999 20.8006 8.97537 19.8775C5.89414 20.5458 5.24429 18.3913 5.24429 18.3913C4.74029 17.1129 4.01199 16.7713 4.01199 16.7713C3.0086 16.0846 4.08952 16.0984 4.08952 16.0984C5.20183 16.176 5.78614 17.2393 5.78614 17.2393C6.77383 18.9332 8.37906 18.444 9.01229 18.1606C9.11199 17.4443 9.39722 16.956 9.71383 16.679C7.25383 16.4021 4.66829 15.4495 4.66829 11.2052C4.66829 9.99595 5.09752 9.00826 5.80829 8.23288C5.68368 7.95318 5.30983 6.82703 5.90522 5.30119C5.90522 5.30119 6.83291 5.00395 8.95137 6.43657C9.83752 6.19011 10.7791 6.06826 11.7206 6.06272C12.6621 6.06826 13.6037 6.19011 14.4898 6.43657C16.5944 5.00395 17.5221 5.30119 17.5221 5.30119C18.1175 6.82703 17.7437 7.95318 17.6329 8.23288C18.3391 9.00826 18.7683 9.99595 18.7683 11.2052C18.7683 15.4606 16.1791 16.3975 13.7144 16.6698C14.1021 17.0021 14.4621 17.6815 14.4621 18.719C14.4621 20.2015 14.4483 21.3923 14.4483 21.7523C14.4483 22.043 14.6421 22.3892 15.2098 22.2784C19.6415 20.8255 22.8123 16.6716 22.8123 11.784C22.8123 5.66672 17.8526 0.707031 11.7354 0.707031Z" fill="#D9D9D9"/>
</g>
<defs>
<clipPath id="clip0_1_661">
<rect width="22.1538" height="21.5862" fill="white" transform="translate(0.658447 0.707031)"/>
</clipPath>
</defs>
</svg>
