<svg width="32" height="31" viewBox="0 0 32 31" fill="none" xmlns="http://www.w3.org/2000/svg">
<path d="M15.6491 11.3022C14.5357 11.3022 13.468 11.7445 12.6807 12.5318C11.8935 13.3191 11.4512 14.3868 11.4512 15.5002C11.4512 16.6135 11.8935 17.6813 12.6807 18.4685C13.468 19.2558 14.5357 19.6981 15.6491 19.6981C16.7624 19.6981 17.8302 19.2558 18.6175 18.4685C19.4047 17.6813 19.847 16.6135 19.847 15.5002C19.847 14.3868 19.4047 13.3191 18.6175 12.5318C17.8302 11.7445 16.7624 11.3022 15.6491 11.3022Z" fill="#CCCCCC"/>
<path fill-rule="evenodd" clip-rule="evenodd" d="M8.89422 3.98068C13.3841 3.483 17.9152 3.483 22.4051 3.98068C24.8579 4.25451 26.8355 6.18556 27.1235 8.64747C27.656 13.2002 27.656 17.7994 27.1235 22.3521C26.8355 24.814 24.8579 26.745 22.4063 27.0201C17.9161 27.518 13.3845 27.518 8.89422 27.0201C6.44134 26.745 4.4638 24.814 4.17576 22.3533C3.64324 17.8002 3.64324 13.2006 4.17576 8.64747C4.4638 6.18556 6.44134 4.25451 8.89422 3.98068ZM22.108 7.74976C21.7654 7.74976 21.4369 7.88585 21.1946 8.12808C20.9524 8.37032 20.8163 8.69886 20.8163 9.04143C20.8163 9.384 20.9524 9.71254 21.1946 9.95478C21.4369 10.197 21.7654 10.3331 22.108 10.3331C22.4505 10.3331 22.7791 10.197 23.0213 9.95478C23.2635 9.71254 23.3996 9.384 23.3996 9.04143C23.3996 8.69886 23.2635 8.37032 23.0213 8.12808C22.7791 7.88585 22.4505 7.74976 22.108 7.74976ZM9.51422 15.4998C9.51422 13.8725 10.1606 12.312 11.3112 11.1614C12.4619 10.0108 14.0224 9.36435 15.6496 9.36435C17.2768 9.36435 18.8374 10.0108 19.988 11.1614C21.1386 12.312 21.7851 13.8725 21.7851 15.4998C21.7851 17.127 21.1386 18.6875 19.988 19.8382C18.8374 20.9888 17.2768 21.6352 15.6496 21.6352C14.0224 21.6352 12.4619 20.9888 11.3112 19.8382C10.1606 18.6875 9.51422 17.127 9.51422 15.4998Z" fill="#CCCCCC"/>
</svg>
