<svg width="48" height="48" viewBox="0 0 48 48" fill="none" xmlns="http://www.w3.org/2000/svg">
<g clip-path="url(#clip0_1_844)">
<path d="M10.2857 20.5714C13.122 20.5714 15.4286 18.2648 15.4286 15.4285C15.4286 12.5922 13.122 10.2856 10.2857 10.2856C7.44942 10.2856 5.14285 12.5922 5.14285 15.4285C5.14285 18.2648 7.44942 20.5714 10.2857 20.5714ZM10.2857 11.9999C12.1766 11.9999 13.7143 13.5376 13.7143 15.4285C13.7143 17.3194 12.1766 18.8571 10.2857 18.8571C8.39485 18.8571 6.85714 17.3194 6.85714 15.4285C6.85714 13.5376 8.39485 11.9999 10.2857 11.9999Z" fill="white"/>
<path d="M37.7143 20.5714C40.5506 20.5714 42.8572 18.2648 42.8572 15.4285C42.8572 12.5922 40.5506 10.2856 37.7143 10.2856C34.878 10.2856 32.5714 12.5922 32.5714 15.4285C32.5714 18.2648 34.878 20.5714 37.7143 20.5714ZM37.7143 11.9999C39.6052 11.9999 41.1429 13.5376 41.1429 15.4285C41.1429 17.3194 39.6052 18.8571 37.7143 18.8571C35.8234 18.8571 34.2857 17.3194 34.2857 15.4285C34.2857 13.5376 35.8234 11.9999 37.7143 11.9999Z" fill="white"/>
<path d="M46.2857 22.2856V33.4285C46.2857 34.8462 45.132 35.9999 43.7143 35.9999V26.5714C43.7143 24.2082 41.7917 22.2856 39.4286 22.2856H35.1429C34.6697 22.2856 34.2857 22.6696 34.2857 23.1428V26.5714V27.4285V28.2856H27.4286C26.9554 28.2856 26.5714 28.6696 26.5714 29.1428V31.7142H21.4286V29.1428C21.4286 28.6696 21.0446 28.2856 20.5714 28.2856H13.7143V27.4285V26.5714V23.1428C13.7143 22.6696 13.3303 22.2856 12.8571 22.2856H8.57143C6.20829 22.2856 4.28571 24.2082 4.28571 26.5714V35.9999C2.868 35.9999 1.71429 34.8462 1.71429 33.4285V22.2856H0V33.4285C0 35.1814 1.06029 36.6874 2.57143 37.3508V47.9999H4.28571V37.7142H5.14286H6H12.8571V47.1428C12.8571 47.6159 13.2411 47.9999 13.7143 47.9999H16.2857H17.1429H18V47.1428V34.2856V33.4285H20.5714H27.4286H30V34.2856V47.1428V47.9999H30.8571H31.7143H34.2857C34.7589 47.9999 35.1429 47.6159 35.1429 47.1428V37.7142H42H42.8571H43.7143V47.9999H45.4286V37.3508C46.9397 36.6874 48 35.1814 48 33.4285V22.2856H46.2857ZM17.1429 31.7142H15.4286H10.2857V26.5714H8.57143V32.5714C8.57143 33.0445 8.95543 33.4285 9.42857 33.4285H15.4286C15.9009 33.4285 16.2857 33.8134 16.2857 34.2856V46.2856H14.5714V36.8571C14.5714 36.3839 14.1874 35.9999 13.7143 35.9999H6V26.5714C6 25.1536 7.15371 23.9999 8.57143 23.9999H12V26.5714V27.4285V29.1428C12 29.6159 12.384 29.9999 12.8571 29.9999H19.7143V31.7142H17.1429ZM34.2857 35.9999C33.8126 35.9999 33.4286 36.3839 33.4286 36.8571V46.2856H31.7143V34.2856C31.7143 33.8134 32.0991 33.4285 32.5714 33.4285H38.5714C39.0446 33.4285 39.4286 33.0445 39.4286 32.5714V26.5714H37.7143V31.7142H32.5714H30.8571H28.2857V29.9999H35.1429C35.616 29.9999 36 29.6159 36 29.1428V27.4285V26.5714V23.9999H39.4286C40.8463 23.9999 42 25.1536 42 26.5714V35.9999H34.2857Z" fill="white"/>
<path d="M16.2857 8.57143V11.1429C16.2857 11.5123 16.5214 11.8389 16.872 11.9563C16.9612 11.9854 17.0529 12 17.1429 12C17.4077 12 17.6632 11.8766 17.8286 11.6571L20.1429 8.57143H26.5714C27.9892 8.57143 29.1429 7.41771 29.1429 6V2.57143C29.1429 1.15371 27.9892 0 26.5714 0H16.2857C14.868 0 13.7143 1.15371 13.7143 2.57143V6C13.7143 7.41771 14.868 8.57143 16.2857 8.57143ZM15.4286 2.57143C15.4286 2.09914 15.8134 1.71429 16.2857 1.71429H26.5714C27.0437 1.71429 27.4286 2.09914 27.4286 2.57143V6C27.4286 6.47229 27.0437 6.85714 26.5714 6.85714H19.7143C19.4443 6.85714 19.1906 6.984 19.0286 7.2L18 8.57143V7.71429C18 7.24114 17.616 6.85714 17.1429 6.85714H16.2857C15.8134 6.85714 15.4286 6.47229 15.4286 6V2.57143Z" fill="white"/>
<path d="M25.7143 3.42847H17.1429V5.14275H25.7143V3.42847Z" fill="white"/>
<path d="M28.2857 21.4285H23.1429V23.1428H28.2857V21.4285Z" fill="white"/>
<path d="M22.2857 18C20.868 18 19.7143 19.1537 19.7143 20.5714V24C19.7143 25.4177 20.868 26.5714 22.2857 26.5714H29.1429C30.5606 26.5714 31.7143 25.4177 31.7143 24V23.4026L33.2846 21.0471C33.4603 20.784 33.4766 20.4463 33.3274 20.1677C33.1783 19.8883 32.8877 19.7143 32.5714 19.7143H31.5677C31.2137 18.7166 30.2606 18 29.1429 18H22.2857ZM30 20.5714C30 21.0446 30.384 21.4286 30.8572 21.4286H30.9694L30.144 22.6671C30.0506 22.8077 30 22.974 30 23.1429V24C30 24.4723 29.6152 24.8571 29.1429 24.8571H22.2857C21.8134 24.8571 21.4286 24.4723 21.4286 24V20.5714C21.4286 20.0991 21.8134 19.7143 22.2857 19.7143H29.1429C29.6152 19.7143 30 20.0991 30 20.5714Z" fill="white"/>
<path d="M21.4286 13.7144H19.7143V15.4286H21.4286V13.7144Z" fill="white"/>
<path d="M24.8571 13.7144H23.1429V15.4286H24.8571V13.7144Z" fill="white"/>
<path d="M28.2857 13.7144H26.5714V15.4286H28.2857V13.7144Z" fill="white"/>
</g>
<defs>
<clipPath id="clip0_1_844">
<rect width="48" height="48" fill="white"/>
</clipPath>
</defs>
</svg>
