<svg width="149" height="176" viewBox="0 0 149 176" fill="none" xmlns="http://www.w3.org/2000/svg">
<g filter="url(#filter0_d_946_2222)">
<rect x="8" y="8" width="124.718" height="152" rx="19.4872" fill="#FEFEFE" shape-rendering="crispEdges"/>
<path d="M35.6071 116.539V103.404H38.0625V116.539H35.6071ZM43.192 106.659V108.354C43.7507 107.146 44.764 106.542 46.232 106.542C47.2194 106.542 47.9989 106.84 48.5705 107.438C49.1421 108.036 49.4279 108.88 49.4279 109.971V116.539H47.0895V110.459C47.0895 109.809 46.9336 109.322 46.6218 108.997C46.31 108.659 45.8877 108.49 45.3551 108.49C44.7445 108.49 44.2313 108.731 43.8156 109.211C43.3999 109.679 43.192 110.355 43.192 111.238V116.539H40.8536V106.659H43.192ZM54.7173 108.412V113.44C54.7173 113.856 54.8277 114.174 55.0486 114.395C55.2695 114.603 55.5748 114.707 55.9645 114.707C56.4582 114.707 56.9129 114.57 57.3286 114.298V116.305C56.8739 116.526 56.2893 116.636 55.5748 116.636C53.4442 116.636 52.3789 115.558 52.3789 113.401V108.412H50.8978V106.659H52.3789V104.281H54.7173V106.659H57.1727V108.412H54.7173ZM65.1996 110.79V110.498C65.1736 109.861 64.9982 109.354 64.6734 108.978C64.3616 108.588 63.9004 108.393 63.2898 108.393C62.7312 108.393 62.244 108.601 61.8283 109.017C61.4256 109.419 61.1657 110.01 61.0488 110.79H65.1996ZM66.7975 113.966V115.993C66.109 116.422 65.1151 116.636 63.816 116.636C62.244 116.636 61.0034 116.168 60.094 115.233C59.1845 114.298 58.7298 113.089 58.7298 111.608C58.7298 110.036 59.1586 108.802 60.016 107.906C60.8734 107.009 61.9452 106.561 63.2314 106.561C64.5175 106.561 65.5374 106.951 66.2909 107.73C67.0444 108.51 67.4211 109.647 67.4211 111.141C67.4211 111.504 67.3757 111.972 67.2847 112.544H61.0878C61.2567 113.258 61.6075 113.804 62.1401 114.181C62.6857 114.557 63.3613 114.746 64.1668 114.746C65.2061 114.746 66.083 114.486 66.7975 113.966ZM71.909 106.659V108.412C72.3637 107.191 73.1951 106.581 74.4033 106.581C74.6761 106.581 74.897 106.6 75.0659 106.639V108.9C74.7671 108.77 74.4358 108.705 74.072 108.705C73.4355 108.705 72.9158 108.965 72.5131 109.484C72.1103 110.004 71.909 110.653 71.909 111.433V116.539H69.551L69.5705 106.659H71.909ZM78.9933 116.539L75.4272 106.659H77.8826L79.1882 110.848C79.448 111.667 79.6689 112.401 79.8508 113.05C80.0326 113.687 80.1496 114.122 80.2015 114.356L80.26 114.707C80.3899 113.979 80.7602 112.693 81.3708 110.848L82.7349 106.659H85.1513L81.5267 116.539H78.9933ZM86.7573 116.539V106.659H89.0957V116.539H86.7573ZM86.5234 103.697C86.5234 103.307 86.6598 102.975 86.9327 102.703C87.2055 102.43 87.5368 102.293 87.9265 102.293C88.3163 102.293 88.6475 102.43 88.9204 102.703C89.1932 102.975 89.3296 103.307 89.3296 103.697C89.3296 104.099 89.1932 104.437 88.9204 104.71C88.6475 104.983 88.3163 105.119 87.9265 105.119C87.5368 105.119 87.2055 104.983 86.9327 104.71C86.6598 104.437 86.5234 104.099 86.5234 103.697ZM97.6655 110.79V110.498C97.6396 109.861 97.4642 109.354 97.1394 108.978C96.8276 108.588 96.3664 108.393 95.7558 108.393C95.1972 108.393 94.71 108.601 94.2943 109.017C93.8915 109.419 93.6317 110.01 93.5148 110.79H97.6655ZM99.2635 113.966V115.993C98.5749 116.422 97.5811 116.636 96.2819 116.636C94.71 116.636 93.4693 116.168 92.5599 115.233C91.6505 114.298 91.1958 113.089 91.1958 111.608C91.1958 110.036 91.6245 108.802 92.4819 107.906C93.3394 107.009 94.4112 106.561 95.6973 106.561C96.9835 106.561 98.0033 106.951 98.7568 107.73C99.5103 108.51 99.8871 109.647 99.8871 111.141C99.8871 111.504 99.8416 111.972 99.7507 112.544H93.5537C93.7226 113.258 94.0734 113.804 94.606 114.181C95.1517 114.557 95.8272 114.746 96.6327 114.746C97.672 114.746 98.549 114.486 99.2635 113.966ZM104.141 116.539L101.023 106.659H103.459L104.355 109.913C104.615 110.848 104.83 111.686 104.998 112.427C105.18 113.154 105.291 113.648 105.33 113.908L105.408 114.298C105.538 113.505 105.914 112.044 106.538 109.913L107.493 106.659H109.617L110.572 109.913C110.858 110.874 111.091 111.725 111.273 112.466C111.468 113.193 111.592 113.68 111.644 113.927L111.702 114.317C111.832 113.551 112.215 112.083 112.852 109.913L113.787 106.659H116.126L112.988 116.539H110.455L109.578 113.304C109.344 112.459 109.143 111.693 108.974 111.004C108.805 110.303 108.695 109.822 108.643 109.562L108.565 109.153C108.396 110.01 108.058 111.394 107.551 113.304L106.674 116.539H104.141ZM35.3768 130.932C35.3768 132.31 35.7016 133.401 36.3512 134.206C37.0008 135.012 37.8712 135.414 38.9625 135.414C40.0667 135.414 40.9372 135.018 41.5737 134.226C42.2103 133.42 42.5286 132.323 42.5286 130.932C42.5286 129.542 42.2103 128.445 41.5737 127.639C40.9372 126.834 40.0602 126.431 38.943 126.431C37.8387 126.431 36.9683 126.834 36.3317 127.639C35.6951 128.445 35.3768 129.542 35.3768 130.932ZM45.8804 139.331L43.1132 140.403L39.2548 137.675H38.9625C37.0787 137.675 35.5717 137.058 34.4414 135.824C33.3112 134.59 32.7461 132.959 32.7461 130.932C32.7461 128.893 33.3047 127.256 34.422 126.022C35.5522 124.787 37.0592 124.17 38.943 124.17C40.8527 124.17 42.3662 124.787 43.4835 126.022C44.6008 127.243 45.1594 128.88 45.1594 130.932C45.1594 132.361 44.8736 133.602 44.302 134.654C43.7303 135.707 42.9249 136.493 41.8855 137.012L45.8804 139.331ZM53.4905 127.659H55.8484V137.539H53.4905V135.921C52.9708 137.064 51.9575 137.636 50.4505 137.636C49.4501 137.636 48.6706 137.35 48.112 136.779C47.5534 136.207 47.2741 135.395 47.2741 134.343V127.659H49.6125V133.797C49.6125 134.421 49.7619 134.895 50.0607 135.22C50.3725 135.544 50.7947 135.707 51.3274 135.707C52.0029 135.707 52.5291 135.479 52.9058 135.025C53.2956 134.57 53.4905 133.881 53.4905 132.959V127.659ZM64.3337 131.79V131.498C64.3077 130.861 64.1323 130.354 63.8076 129.978C63.4958 129.588 63.0346 129.393 62.424 129.393C61.8653 129.393 61.3782 129.601 60.9624 130.017C60.5597 130.419 60.2999 131.01 60.1829 131.79H64.3337ZM65.9317 134.966V136.993C65.2431 137.422 64.2493 137.636 62.9501 137.636C61.3782 137.636 60.1375 137.168 59.2281 136.233C58.3187 135.298 57.864 134.089 57.864 132.608C57.864 131.036 58.2927 129.802 59.1501 128.906C60.0076 128.009 61.0793 127.561 62.3655 127.561C63.6517 127.561 64.6715 127.951 65.425 128.73C66.1785 129.51 66.5552 130.647 66.5552 132.141C66.5552 132.504 66.5098 132.972 66.4188 133.544H60.2219C60.3908 134.258 60.7416 134.804 61.2742 135.181C61.8199 135.557 62.4954 135.746 63.3009 135.746C64.3402 135.746 65.2171 135.486 65.9317 134.966ZM74.6092 127.97V130.036C73.9597 129.646 73.1477 129.451 72.1733 129.451C71.7706 129.451 71.4523 129.542 71.2185 129.724C70.9976 129.893 70.8872 130.114 70.8872 130.387C70.8872 130.491 70.9002 130.588 70.9262 130.679C70.9651 130.77 71.0236 130.861 71.1015 130.952C71.1925 131.03 71.2769 131.101 71.3549 131.166C71.4328 131.231 71.5433 131.303 71.6862 131.381C71.8291 131.446 71.9525 131.504 72.0564 131.556C72.1603 131.608 72.3033 131.673 72.4851 131.751C72.667 131.829 72.8099 131.894 72.9139 131.946C73.6024 132.284 74.148 132.66 74.5508 133.076C74.9535 133.492 75.1549 134.031 75.1549 134.693C75.1549 135.616 74.8236 136.337 74.161 136.857C73.4985 137.376 72.615 137.636 71.5108 137.636C70.2896 137.636 69.3022 137.435 68.5487 137.032V134.888C69.4192 135.473 70.361 135.765 71.3744 135.765C71.8031 135.765 72.1344 135.687 72.3682 135.531C72.615 135.363 72.7385 135.135 72.7385 134.849C72.7385 134.68 72.6995 134.531 72.6215 134.401C72.5436 134.258 72.3942 134.122 72.1733 133.992C71.9525 133.862 71.7771 133.771 71.6472 133.719C71.5303 133.654 71.2899 133.544 70.9262 133.388C70.8872 133.375 70.8547 133.362 70.8287 133.349C70.8157 133.336 70.7897 133.323 70.7508 133.31C70.7118 133.297 70.6793 133.284 70.6533 133.271C69.2113 132.621 68.4903 131.686 68.4903 130.465C68.4903 129.555 68.8345 128.841 69.5231 128.321C70.2116 127.801 71.0756 127.542 72.1149 127.542C73.1152 127.542 73.9467 127.685 74.6092 127.97ZM79.8661 129.412V134.44C79.8661 134.856 79.9765 135.174 80.1973 135.395C80.4182 135.603 80.7235 135.707 81.1132 135.707C81.6069 135.707 82.0616 135.57 82.4773 135.298V137.305C82.0226 137.526 81.438 137.636 80.7235 137.636C78.5929 137.636 77.5276 136.558 77.5276 134.401V129.412H76.0466V127.659H77.5276V125.281H79.8661V127.659H82.3214V129.412H79.8661ZM84.5022 137.539V127.659H86.8406V137.539H84.5022ZM84.2683 124.697C84.2683 124.307 84.4047 123.975 84.6776 123.703C84.9504 123.43 85.2817 123.293 85.6714 123.293C86.0612 123.293 86.3924 123.43 86.6653 123.703C86.9381 123.975 87.0745 124.307 87.0745 124.697C87.0745 125.099 86.9381 125.437 86.6653 125.71C86.3924 125.983 86.0612 126.119 85.6714 126.119C85.2817 126.119 84.9504 125.983 84.6776 125.71C84.4047 125.437 84.2683 125.099 84.2683 124.697ZM93.6956 137.694C92.2015 137.694 91.0323 137.227 90.1879 136.291C89.3564 135.356 88.9407 134.161 88.9407 132.706C88.9407 131.199 89.3759 129.958 90.2463 128.984C91.1168 127.996 92.2665 127.503 93.6956 127.503C95.2156 127.503 96.3913 127.983 97.2227 128.945C98.0542 129.893 98.4699 131.101 98.4699 132.569C98.4699 134.063 98.0477 135.291 97.2032 136.252C96.3718 137.214 95.2026 137.694 93.6956 137.694ZM93.6956 129.412C92.955 129.412 92.3834 129.718 91.9807 130.328C91.5909 130.939 91.3961 131.705 91.3961 132.628C91.3961 133.537 91.5974 134.297 92.0002 134.908C92.4029 135.518 92.9745 135.824 93.715 135.824C94.4815 135.824 95.0597 135.525 95.4494 134.927C95.8391 134.33 96.034 133.57 96.034 132.647C96.034 131.699 95.8456 130.926 95.4689 130.328C95.0921 129.718 94.501 129.412 93.6956 129.412ZM102.824 127.659V129.354C103.383 128.146 104.396 127.542 105.864 127.542C106.851 127.542 107.631 127.84 108.202 128.438C108.774 129.036 109.06 129.88 109.06 130.971V137.539H106.721V131.459C106.721 130.809 106.565 130.322 106.254 129.997C105.942 129.659 105.52 129.49 104.987 129.49C104.376 129.49 103.863 129.731 103.448 130.211C103.032 130.679 102.824 131.355 102.824 132.238V137.539H100.485V127.659H102.824ZM117.409 127.97V130.036C116.759 129.646 115.947 129.451 114.973 129.451C114.57 129.451 114.252 129.542 114.018 129.724C113.797 129.893 113.687 130.114 113.687 130.387C113.687 130.491 113.7 130.588 113.726 130.679C113.765 130.77 113.823 130.861 113.901 130.952C113.992 131.03 114.076 131.101 114.154 131.166C114.232 131.231 114.343 131.303 114.486 131.381C114.629 131.446 114.752 131.504 114.856 131.556C114.96 131.608 115.103 131.673 115.285 131.751C115.466 131.829 115.609 131.894 115.713 131.946C116.402 132.284 116.948 132.66 117.35 133.076C117.753 133.492 117.954 134.031 117.954 134.693C117.954 135.616 117.623 136.337 116.961 136.857C116.298 137.376 115.415 137.636 114.31 137.636C113.089 137.636 112.102 137.435 111.348 137.032V134.888C112.219 135.473 113.161 135.765 114.174 135.765C114.603 135.765 114.934 135.687 115.168 135.531C115.415 135.363 115.538 135.135 115.538 134.849C115.538 134.68 115.499 134.531 115.421 134.401C115.343 134.258 115.194 134.122 114.973 133.992C114.752 133.862 114.577 133.771 114.447 133.719C114.33 133.654 114.089 133.544 113.726 133.388C113.687 133.375 113.654 133.362 113.628 133.349C113.615 133.336 113.589 133.323 113.55 133.31C113.511 133.297 113.479 133.284 113.453 133.271C112.011 132.621 111.29 131.686 111.29 130.465C111.29 129.555 111.634 128.841 112.323 128.321C113.011 127.801 113.875 127.542 114.914 127.542C115.915 127.542 116.746 127.685 117.409 127.97Z" fill="#2A2A2A"/>
<path fill-rule="evenodd" clip-rule="evenodd" d="M75.2193 55.1346C75.2193 55.0376 75.1809 54.9446 75.1124 54.8761C75.0439 54.8076 74.951 54.769 74.8542 54.769H64.6314C63.5662 54.769 62.5447 55.1926 61.7915 55.9467C61.0384 56.7007 60.6152 57.7233 60.6152 58.7896V79.2582C60.6152 80.3245 61.0384 81.3472 61.7915 82.1012C62.5447 82.8552 63.5662 83.2788 64.6314 83.2788H79.2354C80.3006 83.2788 81.3221 82.8552 82.0753 82.1012C82.8284 81.3472 83.2516 80.3245 83.2516 79.2582V64.8527C83.2516 64.7558 83.2131 64.6628 83.1446 64.5943C83.0762 64.5257 82.9833 64.4872 82.8865 64.4872H76.3146C76.0241 64.4872 75.7455 64.3717 75.5401 64.166C75.3347 63.9604 75.2193 63.6815 75.2193 63.3907V55.1346ZM76.3146 69.3894C76.6051 69.3894 76.8837 69.505 77.0891 69.7106C77.2945 69.9162 77.4099 70.1951 77.4099 70.486C77.4099 70.7768 77.2945 71.0557 77.0891 71.2613C76.8837 71.467 76.6051 71.5825 76.3146 71.5825H67.5522C67.2617 71.5825 66.9831 71.467 66.7777 71.2613C66.5723 71.0557 66.4569 70.7768 66.4569 70.486C66.4569 70.1951 66.5723 69.9162 66.7777 69.7106C66.9831 69.505 67.2617 69.3894 67.5522 69.3894H76.3146ZM76.3146 75.2376C76.6051 75.2376 76.8837 75.3531 77.0891 75.5587C77.2945 75.7644 77.4099 76.0433 77.4099 76.3341C77.4099 76.6249 77.2945 76.9038 77.0891 77.1095C76.8837 77.3151 76.6051 77.4306 76.3146 77.4306H67.5522C67.2617 77.4306 66.9831 77.3151 66.7777 77.1095C66.5723 76.9038 66.4569 76.6249 66.4569 76.3341C66.4569 76.0433 66.5723 75.7644 66.7777 75.5587C66.9831 75.3531 67.2617 75.2376 67.5522 75.2376H76.3146Z" fill="#2A2A2A"/>
<path d="M77.4102 55.6082C77.4102 55.3392 77.692 55.1682 77.9009 55.3363C78.0776 55.4796 78.2367 55.6463 78.3726 55.8363L82.7728 61.9725C82.8721 62.1129 82.764 62.2941 82.5917 62.2941H77.7753C77.6784 62.2941 77.5856 62.2556 77.5171 62.1871C77.4486 62.1185 77.4102 62.0256 77.4102 61.9286V55.6082Z" fill="#2A2A2A"/>
<circle cx="35.9238" cy="36" r="11.5" stroke="black"/>
<circle cx="35.9238" cy="36" r="9" fill="#2A2A2A"/>
</g>
<defs>
<filter id="filter0_d_946_2222" x="0.205128" y="0.205128" width="148.102" height="175.385" filterUnits="userSpaceOnUse" color-interpolation-filters="sRGB">
<feFlood flood-opacity="0" result="BackgroundImageFix"/>
<feColorMatrix in="SourceAlpha" type="matrix" values="0 0 0 0 0 0 0 0 0 0 0 0 0 0 0 0 0 0 127 0" result="hardAlpha"/>
<feOffset dx="3.89744" dy="3.89744"/>
<feGaussianBlur stdDeviation="5.84615"/>
<feComposite in2="hardAlpha" operator="out"/>
<feColorMatrix type="matrix" values="0 0 0 0 0.683333 0 0 0 0 0.674792 0 0 0 0 0.674792 0 0 0 0.5 0"/>
<feBlend mode="normal" in2="BackgroundImageFix" result="effect1_dropShadow_946_2222"/>
<feBlend mode="normal" in="SourceGraphic" in2="effect1_dropShadow_946_2222" result="shape"/>
</filter>
</defs>
</svg>
