<svg width="149" height="176" viewBox="0 0 149 176" fill="none" xmlns="http://www.w3.org/2000/svg">
<g filter="url(#filter0_d_47_252)">
<rect x="8" y="8" width="124.718" height="152" rx="19.4872" fill="#FEFEFE" shape-rendering="crispEdges"/>
<path d="M35.607 116.538V103.404H38.0624V116.538H35.607ZM43.192 106.658V108.354C43.7506 107.146 44.7639 106.542 46.232 106.542C47.2193 106.542 47.9988 106.84 48.5704 107.438C49.142 108.036 49.4279 108.88 49.4279 109.971V116.538H47.0894V110.458C47.0894 109.809 46.9335 109.322 46.6217 108.997C46.3099 108.659 45.8877 108.49 45.355 108.49C44.7444 108.49 44.2313 108.731 43.8155 109.211C43.3998 109.679 43.192 110.355 43.192 111.238V116.538H40.8535V106.658H43.192ZM54.7173 108.412V113.44C54.7173 113.856 54.8277 114.174 55.0485 114.395C55.2694 114.603 55.5747 114.707 55.9644 114.707C56.4581 114.707 56.9128 114.57 57.3285 114.297V116.305C56.8738 116.525 56.2892 116.636 55.5747 116.636C53.4441 116.636 52.3788 115.558 52.3788 113.401V108.412H50.8978V106.658H52.3788V104.281H54.7173V106.658H57.1726V108.412H54.7173ZM65.1995 110.79V110.497C65.1735 109.861 64.9982 109.354 64.6734 108.977C64.3616 108.588 63.9004 108.393 63.2898 108.393C62.7312 108.393 62.244 108.601 61.8282 109.016C61.4255 109.419 61.1657 110.01 61.0488 110.79H65.1995ZM66.7975 113.966V115.993C66.1089 116.422 65.1151 116.636 63.8159 116.636C62.244 116.636 61.0033 116.168 60.0939 115.233C59.1845 114.297 58.7298 113.089 58.7298 111.608C58.7298 110.036 59.1585 108.802 60.0159 107.906C60.8734 107.009 61.9452 106.561 63.2313 106.561C64.5175 106.561 65.5373 106.951 66.2908 107.73C67.0443 108.51 67.4211 109.646 67.4211 111.141C67.4211 111.504 67.3756 111.972 67.2847 112.544H61.0877C61.2566 113.258 61.6074 113.804 62.14 114.181C62.6857 114.557 63.3612 114.746 64.1667 114.746C65.206 114.746 66.083 114.486 66.7975 113.966ZM71.9089 106.658V108.412C72.3636 107.191 73.1951 106.581 74.4033 106.581C74.6761 106.581 74.8969 106.6 75.0658 106.639V108.899C74.767 108.77 74.4357 108.705 74.072 108.705C73.4354 108.705 72.9157 108.964 72.513 109.484C72.1103 110.004 71.9089 110.653 71.9089 111.433V116.538H69.551L69.5704 106.658H71.9089ZM78.9933 116.538L75.4271 106.658H77.8825L79.1881 110.848C79.448 111.667 79.6688 112.401 79.8507 113.05C80.0326 113.687 80.1495 114.122 80.2015 114.356L80.2599 114.707C80.3898 113.979 80.7601 112.693 81.3707 110.848L82.7348 106.658H85.1512L81.5266 116.538H78.9933ZM86.7572 116.538V106.658H89.0957V116.538H86.7572ZM86.5234 103.696C86.5234 103.307 86.6598 102.975 86.9326 102.703C87.2054 102.43 87.5367 102.293 87.9265 102.293C88.3162 102.293 88.6475 102.43 88.9203 102.703C89.1931 102.975 89.3295 103.307 89.3295 103.696C89.3295 104.099 89.1931 104.437 88.9203 104.71C88.6475 104.983 88.3162 105.119 87.9265 105.119C87.5367 105.119 87.2054 104.983 86.9326 104.71C86.6598 104.437 86.5234 104.099 86.5234 103.696ZM97.6655 110.79V110.497C97.6395 109.861 97.4641 109.354 97.1393 108.977C96.8275 108.588 96.3663 108.393 95.7557 108.393C95.1971 108.393 94.7099 108.601 94.2942 109.016C93.8915 109.419 93.6316 110.01 93.5147 110.79H97.6655ZM99.2634 113.966V115.993C98.5749 116.422 97.581 116.636 96.2819 116.636C94.7099 116.636 93.4692 116.168 92.5598 115.233C91.6504 114.297 91.1957 113.089 91.1957 111.608C91.1957 110.036 91.6245 108.802 92.4819 107.906C93.3393 107.009 94.4111 106.561 95.6973 106.561C96.9834 106.561 98.0033 106.951 98.7568 107.73C99.5103 108.51 99.887 109.646 99.887 111.141C99.887 111.504 99.8415 111.972 99.7506 112.544H93.5537C93.7226 113.258 94.0733 113.804 94.606 114.181C95.1516 114.557 95.8272 114.746 96.6327 114.746C97.672 114.746 98.5489 114.486 99.2634 113.966ZM104.141 116.538L101.023 106.658H103.459L104.355 109.913C104.615 110.848 104.83 111.686 104.998 112.427C105.18 113.154 105.291 113.648 105.33 113.908L105.408 114.297C105.538 113.505 105.914 112.043 106.538 109.913L107.493 106.658H109.617L110.572 109.913C110.858 110.874 111.091 111.725 111.273 112.466C111.468 113.193 111.592 113.68 111.644 113.927L111.702 114.317C111.832 113.55 112.215 112.082 112.852 109.913L113.787 106.658H116.126L112.988 116.538H110.455L109.578 113.304C109.344 112.459 109.143 111.693 108.974 111.004C108.805 110.303 108.695 109.822 108.643 109.562L108.565 109.153C108.396 110.01 108.058 111.394 107.551 113.304L106.674 116.538H104.141ZM35.3768 130.932C35.3768 132.309 35.7016 133.401 36.3511 134.206C37.0007 135.012 37.8711 135.414 38.9624 135.414C40.0667 135.414 40.9371 135.018 41.5737 134.226C42.2103 133.42 42.5286 132.322 42.5286 130.932C42.5286 129.542 42.2103 128.444 41.5737 127.639C40.9371 126.833 40.0602 126.431 38.9429 126.431C37.8386 126.431 36.9682 126.833 36.3316 127.639C35.6951 128.444 35.3768 129.542 35.3768 130.932ZM45.8804 139.331L43.1132 140.403L39.2547 137.675H38.9624C37.0786 137.675 35.5716 137.058 34.4414 135.824C33.3111 134.589 32.746 132.959 32.746 130.932C32.746 128.893 33.3046 127.256 34.4219 126.022C35.5521 124.787 37.0592 124.17 38.9429 124.17C40.8527 124.17 42.3662 124.787 43.4834 126.022C44.6007 127.243 45.1593 128.88 45.1593 130.932C45.1593 132.361 44.8735 133.602 44.3019 134.654C43.7303 135.707 42.9248 136.493 41.8855 137.012L45.8804 139.331ZM53.4904 127.658H55.8484V137.538H53.4904V135.921C52.9707 137.064 51.9574 137.636 50.4504 137.636C49.4501 137.636 48.6706 137.35 48.1119 136.778C47.5533 136.207 47.274 135.395 47.274 134.343V127.658H49.6125V133.797C49.6125 134.421 49.7619 134.895 50.0607 135.219C50.3725 135.544 50.7947 135.707 51.3273 135.707C52.0029 135.707 52.529 135.479 52.9058 135.025C53.2955 134.57 53.4904 133.881 53.4904 132.959V127.658ZM64.3336 131.79V131.497C64.3077 130.861 64.1323 130.354 63.8075 129.977C63.4957 129.588 63.0345 129.393 62.4239 129.393C61.8653 129.393 61.3781 129.601 60.9624 130.016C60.5596 130.419 60.2998 131.01 60.1829 131.79H64.3336ZM65.9316 134.966V136.993C65.243 137.422 64.2492 137.636 62.9501 137.636C61.3781 137.636 60.1374 137.168 59.228 136.233C58.3186 135.297 57.8639 134.089 57.8639 132.608C57.8639 131.036 58.2926 129.802 59.1501 128.906C60.0075 128.009 61.0793 127.561 62.3654 127.561C63.6516 127.561 64.6714 127.951 65.4249 128.73C66.1784 129.51 66.5552 130.646 66.5552 132.141C66.5552 132.504 66.5097 132.972 66.4188 133.544H60.2219C60.3907 134.258 60.7415 134.804 61.2742 135.181C61.8198 135.557 62.4954 135.746 63.3008 135.746C64.3401 135.746 65.2171 135.486 65.9316 134.966ZM74.6092 127.97V130.036C73.9596 129.646 73.1476 129.451 72.1733 129.451C71.7705 129.451 71.4523 129.542 71.2184 129.724C70.9976 129.893 70.8871 130.114 70.8871 130.387C70.8871 130.491 70.9001 130.588 70.9261 130.679C70.9651 130.77 71.0235 130.861 71.1015 130.952C71.1924 131.03 71.2769 131.101 71.3548 131.166C71.4328 131.231 71.5432 131.303 71.6861 131.381C71.829 131.445 71.9524 131.504 72.0564 131.556C72.1603 131.608 72.3032 131.673 72.4851 131.751C72.667 131.829 72.8099 131.894 72.9138 131.946C73.6023 132.283 74.148 132.66 74.5507 133.076C74.9534 133.492 75.1548 134.031 75.1548 134.693C75.1548 135.616 74.8235 136.337 74.161 136.856C73.4984 137.376 72.615 137.636 71.5107 137.636C70.2895 137.636 69.3022 137.435 68.5487 137.032V134.888C69.4191 135.473 70.361 135.765 71.3743 135.765C71.803 135.765 72.1343 135.687 72.3681 135.531C72.615 135.362 72.7384 135.135 72.7384 134.849C72.7384 134.68 72.6994 134.531 72.6215 134.401C72.5435 134.258 72.3941 134.122 72.1733 133.992C71.9524 133.862 71.777 133.771 71.6471 133.719C71.5302 133.654 71.2899 133.544 70.9261 133.388C70.8871 133.375 70.8546 133.362 70.8287 133.349C70.8157 133.336 70.7897 133.323 70.7507 133.31C70.7117 133.297 70.6793 133.284 70.6533 133.271C69.2112 132.621 68.4902 131.686 68.4902 130.465C68.4902 129.555 68.8345 128.841 69.523 128.321C70.2116 127.801 71.0755 127.542 72.1148 127.542C73.1152 127.542 73.9466 127.684 74.6092 127.97ZM79.866 129.412V134.44C79.866 134.856 79.9764 135.174 80.1973 135.395C80.4181 135.603 80.7234 135.707 81.1132 135.707C81.6068 135.707 82.0616 135.57 82.4773 135.297V137.305C82.0226 137.525 81.438 137.636 80.7234 137.636C78.5928 137.636 77.5275 136.558 77.5275 134.401V129.412H76.0465V127.658H77.5275V125.281H79.866V127.658H82.3214V129.412H79.866ZM84.5021 137.538V127.658H86.8406V137.538H84.5021ZM84.2683 124.696C84.2683 124.307 84.4047 123.975 84.6775 123.703C84.9503 123.43 85.2816 123.293 85.6713 123.293C86.0611 123.293 86.3924 123.43 86.6652 123.703C86.938 123.975 87.0744 124.307 87.0744 124.696C87.0744 125.099 86.938 125.437 86.6652 125.71C86.3924 125.983 86.0611 126.119 85.6713 126.119C85.2816 126.119 84.9503 125.983 84.6775 125.71C84.4047 125.437 84.2683 125.099 84.2683 124.696ZM93.6955 137.694C92.2015 137.694 91.0322 137.227 90.1878 136.291C89.3564 135.356 88.9406 134.161 88.9406 132.706C88.9406 131.199 89.3758 129.958 90.2463 128.984C91.1167 127.996 92.2664 127.503 93.6955 127.503C95.2155 127.503 96.3912 127.983 97.2227 128.945C98.0541 129.893 98.4699 131.101 98.4699 132.569C98.4699 134.063 98.0476 135.291 97.2032 136.252C96.3717 137.214 95.2025 137.694 93.6955 137.694ZM93.6955 129.412C92.955 129.412 92.3834 129.718 91.9806 130.328C91.5909 130.939 91.396 131.705 91.396 132.628C91.396 133.537 91.5974 134.297 92.0001 134.908C92.4028 135.518 92.9745 135.824 93.715 135.824C94.4815 135.824 95.0596 135.525 95.4493 134.927C95.8391 134.33 96.034 133.57 96.034 132.647C96.034 131.699 95.8456 130.926 95.4688 130.328C95.0921 129.718 94.501 129.412 93.6955 129.412ZM102.824 127.658V129.354C103.382 128.146 104.396 127.542 105.864 127.542C106.851 127.542 107.631 127.84 108.202 128.438C108.774 129.036 109.06 129.88 109.06 130.971V137.538H106.721V131.458C106.721 130.809 106.565 130.322 106.254 129.997C105.942 129.659 105.52 129.49 104.987 129.49C104.376 129.49 103.863 129.731 103.447 130.211C103.032 130.679 102.824 131.355 102.824 132.238V137.538H100.485V127.658H102.824ZM117.409 127.97V130.036C116.759 129.646 115.947 129.451 114.973 129.451C114.57 129.451 114.252 129.542 114.018 129.724C113.797 129.893 113.687 130.114 113.687 130.387C113.687 130.491 113.7 130.588 113.726 130.679C113.765 130.77 113.823 130.861 113.901 130.952C113.992 131.03 114.076 131.101 114.154 131.166C114.232 131.231 114.343 131.303 114.486 131.381C114.628 131.445 114.752 131.504 114.856 131.556C114.96 131.608 115.103 131.673 115.285 131.751C115.466 131.829 115.609 131.894 115.713 131.946C116.402 132.283 116.947 132.66 117.35 133.076C117.753 133.492 117.954 134.031 117.954 134.693C117.954 135.616 117.623 136.337 116.96 136.856C116.298 137.376 115.414 137.636 114.31 137.636C113.089 137.636 112.102 137.435 111.348 137.032V134.888C112.219 135.473 113.16 135.765 114.174 135.765C114.602 135.765 114.934 135.687 115.168 135.531C115.414 135.362 115.538 135.135 115.538 134.849C115.538 134.68 115.499 134.531 115.421 134.401C115.343 134.258 115.194 134.122 114.973 133.992C114.752 133.862 114.577 133.771 114.447 133.719C114.33 133.654 114.089 133.544 113.726 133.388C113.687 133.375 113.654 133.362 113.628 133.349C113.615 133.336 113.589 133.323 113.55 133.31C113.511 133.297 113.479 133.284 113.453 133.271C112.011 132.621 111.29 131.686 111.29 130.465C111.29 129.555 111.634 128.841 112.322 128.321C113.011 127.801 113.875 127.542 114.914 127.542C115.915 127.542 116.746 127.684 117.409 127.97Z" fill="#2A2A2A"/>
<path fill-rule="evenodd" clip-rule="evenodd" d="M75.2195 55.1348C75.2195 55.0379 75.181 54.9449 75.1125 54.8763C75.0441 54.8078 74.9512 54.7693 74.8544 54.7693H64.6315C63.5664 54.7693 62.5449 55.1929 61.7917 55.9469C61.0385 56.7009 60.6154 57.7236 60.6154 58.7899V79.2584C60.6154 80.3248 61.0385 81.3474 61.7917 82.1014C62.5449 82.8554 63.5664 83.279 64.6315 83.279H79.2356C80.3007 83.279 81.3223 82.8554 82.0754 82.1014C82.8286 81.3474 83.2517 80.3248 83.2517 79.2584V64.853C83.2517 64.756 83.2133 64.6631 83.1448 64.5945C83.0763 64.526 82.9834 64.4875 82.8866 64.4875H76.3148C76.0243 64.4875 75.7457 64.3719 75.5403 64.1663C75.3349 63.9606 75.2195 63.6817 75.2195 63.3909V55.1348ZM76.3148 69.3897C76.6053 69.3897 76.8839 69.5052 77.0893 69.7108C77.2947 69.9165 77.4101 70.1954 77.4101 70.4862C77.4101 70.777 77.2947 71.0559 77.0893 71.2616C76.8839 71.4672 76.6053 71.5827 76.3148 71.5827H67.5523C67.2618 71.5827 66.9832 71.4672 66.7778 71.2616C66.5724 71.0559 66.457 70.777 66.457 70.4862C66.457 70.1954 66.5724 69.9165 66.7778 69.7108C66.9832 69.5052 67.2618 69.3897 67.5523 69.3897H76.3148ZM76.3148 75.2378C76.6053 75.2378 76.8839 75.3533 77.0893 75.559C77.2947 75.7646 77.4101 76.0435 77.4101 76.3344C77.4101 76.6252 77.2947 76.9041 77.0893 77.1097C76.8839 77.3154 76.6053 77.4309 76.3148 77.4309H67.5523C67.2618 77.4309 66.9832 77.3154 66.7778 77.1097C66.5724 76.9041 66.457 76.6252 66.457 76.3344C66.457 76.0435 66.5724 75.7646 66.7778 75.559C66.9832 75.3533 67.2618 75.2378 67.5523 75.2378H76.3148Z" fill="#2A2A2A"/>
<path d="M77.4102 55.6086C77.4102 55.3396 77.6921 55.1685 77.9009 55.3367C78.0777 55.48 78.2368 55.6466 78.3727 55.8367L82.7729 61.9729C82.8722 62.1132 82.7641 62.2945 82.5918 62.2945H77.7754C77.6785 62.2945 77.5857 62.256 77.5172 62.1875C77.4487 62.1189 77.4102 62.0259 77.4102 61.929V55.6086Z" fill="#2A2A2A"/>
<circle cx="35.9233" cy="36" r="11.5" stroke="black"/>
<circle cx="35.9233" cy="36" r="10" fill="#FEFEFE"/>
</g>
<defs>
<filter id="filter0_d_47_252" x="0.205128" y="0.205128" width="148.103" height="175.385" filterUnits="userSpaceOnUse" color-interpolation-filters="sRGB">
<feFlood flood-opacity="0" result="BackgroundImageFix"/>
<feColorMatrix in="SourceAlpha" type="matrix" values="0 0 0 0 0 0 0 0 0 0 0 0 0 0 0 0 0 0 127 0" result="hardAlpha"/>
<feOffset dx="3.89744" dy="3.89744"/>
<feGaussianBlur stdDeviation="5.84615"/>
<feComposite in2="hardAlpha" operator="out"/>
<feColorMatrix type="matrix" values="0 0 0 0 0.683333 0 0 0 0 0.674792 0 0 0 0 0.674792 0 0 0 0.5 0"/>
<feBlend mode="normal" in2="BackgroundImageFix" result="effect1_dropShadow_47_252"/>
<feBlend mode="normal" in="SourceGraphic" in2="effect1_dropShadow_47_252" result="shape"/>
</filter>
</defs>
</svg>
