<svg width="23" height="23" viewBox="0 0 23 23" fill="none" xmlns="http://www.w3.org/2000/svg">
<g clip-path="url(#clip0_1_669)">
<path d="M19.1387 19.3019H15.8581V14.1613C15.8581 12.9354 15.8332 11.3579 14.1486 11.3579C12.4381 11.3579 12.1769 12.6917 12.1769 14.0708V19.3019H8.89628V8.73079H12.0477V10.1717H12.0901C12.5304 9.34094 13.6012 8.46402 15.2009 8.46402C18.5249 8.46402 19.1397 10.6517 19.1397 13.4994V19.3019H19.1387ZM5.19105 7.28433C4.94078 7.28445 4.69295 7.23521 4.46173 7.13944C4.23051 7.04367 4.02046 6.90324 3.84358 6.72619C3.6667 6.54913 3.52647 6.33894 3.43092 6.10763C3.33537 5.87632 3.28638 5.62844 3.28674 5.37817C3.28692 5.00135 3.39884 4.63305 3.60834 4.31984C3.81784 4.00663 4.11552 3.76257 4.46372 3.61854C4.81193 3.47451 5.19503 3.43696 5.56457 3.51065C5.93411 3.58435 6.2735 3.76597 6.53983 4.03255C6.80615 4.29913 6.98744 4.6387 7.06077 5.00831C7.13411 5.37792 7.09619 5.76098 6.95182 6.10905C6.80745 6.45711 6.56311 6.75455 6.24969 6.96375C5.93628 7.17295 5.56787 7.28451 5.19105 7.28433ZM6.83597 19.3019H3.54613V8.73079H6.83597V19.3019ZM20.78 0.423096H1.89936C0.995664 0.423096 0.264587 1.13756 0.264587 2.0191V20.9809C0.264587 21.8634 0.995664 22.5769 1.89936 22.5769H20.7772C21.68 22.5769 22.4184 21.8634 22.4184 20.9809V2.0191C22.4184 1.13756 21.68 0.423096 20.7772 0.423096H20.78Z" fill="#D9D9D9"/>
</g>
<defs>
<clipPath id="clip0_1_669">
<rect width="22.1538" height="22.1538" fill="white" transform="translate(0.264587 0.423096)"/>
</clipPath>
</defs>
</svg>
