<svg width="48" height="49" viewBox="0 0 48 49" fill="none" xmlns="http://www.w3.org/2000/svg">
<path d="M25.5 7.24995C25.6989 7.24995 25.8897 7.17093 26.0303 7.03028C26.1709 6.88963 26.25 6.69886 26.25 6.49995C26.2501 6.36196 26.2883 6.22668 26.3604 6.10901C26.4324 5.99132 26.5355 5.8958 26.6584 5.83295C26.7812 5.7701 26.919 5.74235 27.0566 5.75277C27.1942 5.76319 27.3263 5.81136 27.4382 5.89199C27.5502 5.97262 27.6378 6.08258 27.6913 6.20976C27.7448 6.33695 27.7622 6.47643 27.7415 6.61287C27.7209 6.7493 27.663 6.87739 27.5743 6.98304C27.4855 7.08869 27.3693 7.16782 27.2385 7.2117C26.9446 7.31614 26.691 7.51038 26.5135 7.76693C26.3362 8.02349 26.2439 8.32934 26.25 8.64119V9.49994C26.25 9.69884 26.3291 9.88964 26.4697 10.0303C26.6103 10.1709 26.8011 10.2499 27 10.2499C27.1989 10.2499 27.3897 10.1709 27.5303 10.0303C27.6709 9.88964 27.75 9.69884 27.75 9.49994L27.7147 8.6337C28.1074 8.50214 28.4561 8.26484 28.7225 7.94785C28.9889 7.63086 29.1626 7.2465 29.2247 6.83711C29.2866 6.4277 29.2345 6.00914 29.0738 5.62748C28.9132 5.24584 28.6504 4.91591 28.3143 4.67404C27.9782 4.43216 27.5819 4.28771 27.169 4.2566C26.7562 4.22549 26.3427 4.30892 25.9741 4.49771C25.6056 4.6865 25.2964 4.97331 25.0804 5.32658C24.8644 5.67986 24.7501 6.08588 24.75 6.49995C24.75 6.69886 24.8291 6.88963 24.9697 7.03028C25.1103 7.17093 25.3011 7.24995 25.5 7.24995Z" fill="white"/>
<path d="M13.875 23H27.375C27.6734 23 27.9595 22.9209 28.1705 22.7803C28.3814 22.6397 28.5 22.4489 28.5 22.25C28.5 22.0511 28.3814 21.8603 28.1705 21.7197C27.9595 21.5791 27.6734 21.5 27.375 21.5H13.875C13.5767 21.5 13.2905 21.5791 13.0795 21.7197C12.8686 21.8603 12.75 22.0511 12.75 22.25C12.75 22.4489 12.8686 22.6397 13.0795 22.7803C13.2905 22.9209 13.5767 23 13.875 23Z" fill="white"/>
<path d="M13.875 26H27.375C27.6734 26 27.9595 25.9209 28.1705 25.7803C28.3814 25.6397 28.5 25.4489 28.5 25.25C28.5 25.0511 28.3814 24.8603 28.1705 24.7197C27.9595 24.5791 27.6734 24.5 27.375 24.5H13.875C13.5767 24.5 13.2905 24.5791 13.0795 24.7197C12.8686 24.8603 12.75 25.0511 12.75 25.25C12.75 25.4489 12.8686 25.6397 13.0795 25.7803C13.2905 25.9209 13.5767 26 13.875 26Z" fill="white"/>
<path d="M13.875 29H27.375C27.6734 29 27.9595 28.9209 28.1705 28.7803C28.3814 28.6397 28.5 28.4489 28.5 28.25C28.5 28.0511 28.3814 27.8603 28.1705 27.7197C27.9595 27.5791 27.6734 27.5 27.375 27.5H13.875C13.5767 27.5 13.2905 27.5791 13.0795 27.7197C12.8686 27.8603 12.75 28.0511 12.75 28.25C12.75 28.4489 12.8686 28.6397 13.0795 28.7803C13.2905 28.9209 13.5767 29 13.875 29Z" fill="white"/>
<path d="M45.75 39.5H45V11.75C45 10.7554 44.6049 9.80158 43.9016 9.09838C43.1984 8.3951 42.2446 8 41.25 8H39V5.75C39 4.75544 38.6049 3.80161 37.9016 3.09835C37.1984 2.39508 36.2446 2 35.25 2H18.75C17.7554 2 16.8016 2.39508 16.0984 3.09835C15.3951 3.80161 15 4.75544 15 5.75V8H6.75C5.75544 8 4.80161 8.3951 4.09835 9.09838C3.39508 9.80158 3 10.7554 3 11.75V39.5H2.25C2.05108 39.5 1.86032 39.579 1.71967 39.7197C1.57902 39.8603 1.5 40.0511 1.5 40.25V42.125C1.5 43.1196 1.5 43.25 2.25 43.25C3 43.25 4.25544 43.25 5.25 43.25H42.75C43.7446 43.25 45.2197 43.25 45.75 43.25C46.2803 43.25 46.5 43.1196 46.5 42.125V40.25C46.5 40.0511 46.421 39.8603 46.2803 39.7197C46.1397 39.579 45.9489 39.5 45.75 39.5ZM16.5 5.75C16.5018 5.15381 16.7394 4.58255 17.161 4.16097C17.5826 3.73941 18.1538 3.50178 18.75 3.5H35.25C35.8462 3.50178 36.4174 3.73941 36.839 4.16097C37.2606 4.58255 37.4982 5.15381 37.5 5.75V11.75C37.4982 12.3462 37.2606 12.9174 36.839 13.339C36.4174 13.7606 35.8462 13.9982 35.25 14H33.75C33.5511 14 33.3603 14.0791 33.2197 14.2197C33.0791 14.3603 33 14.5511 33 14.75V16.3475L29.6625 14.1275C29.5411 14.0441 29.3972 13.9996 29.25 14H18.75C18.1538 13.9982 17.5826 13.7606 17.161 13.339C16.7394 12.9174 16.5018 12.3462 16.5 11.75V5.75ZM15.075 12.5C15.2501 13.3459 15.7109 14.1058 16.3801 14.6521C17.0494 15.1984 17.8862 15.4978 18.75 15.5H29.025L33.3375 18.3725C33.4503 18.4468 33.5811 18.4892 33.716 18.4953C33.851 18.5015 33.985 18.4711 34.1041 18.4073C34.2231 18.3435 34.3228 18.2488 34.3925 18.1331C34.4621 18.0175 34.4993 17.8851 34.5 17.75V15.5H35.25C36.1138 15.4978 36.9506 15.1984 37.6199 14.6521C38.2891 14.1058 38.7499 13.3459 38.925 12.5H40.5V36.5H7.5V12.5H15.075ZM4.5 11.75C4.50178 11.1538 4.73941 10.5826 5.16097 10.161C5.58255 9.7394 6.15381 9.5018 6.75 9.5H15V11H6.75C6.55108 11 6.36032 11.0791 6.21967 11.2197C6.07902 11.3603 6 11.5511 6 11.75V37.25C6 37.4489 6.07902 37.6397 6.21967 37.7803C6.36032 37.921 6.55108 38 6.75 38H41.25C41.4489 38 41.6397 37.921 41.7803 37.7803C41.921 37.6397 42 37.4489 42 37.25V11.75C42 11.5511 41.921 11.3603 41.7803 11.2197C41.6397 11.0791 41.4489 11 41.25 11H39V9.5H41.25C41.8462 9.5018 42.4174 9.7394 42.839 10.161C43.2606 10.5826 43.4982 11.1538 43.5 11.75V39.5H4.5V11.75Z" fill="white"/>
<path d="M29.25 18.5H12.75C11.7554 18.5 10.8016 18.8951 10.0984 19.5984C9.3951 20.3016 9 21.2554 9 22.25V28.25C9 29.2446 9.3951 30.1984 10.0984 30.9016C10.8016 31.6049 11.7554 32 12.75 32H15V34.25C14.999 34.386 15.0356 34.5196 15.1058 34.636C15.176 34.7524 15.2769 34.8473 15.3975 34.91C15.5161 34.975 15.6502 35.0058 15.7853 34.9992C15.9203 34.9926 16.0508 34.9487 16.1625 34.8725L20.475 32H29.25C30.2446 32 31.1984 31.6049 31.9016 30.9016C32.6049 30.1984 33 29.2446 33 28.25V22.25C33 21.2554 32.6049 20.3016 31.9016 19.5984C31.1984 18.8951 30.2446 18.5 29.25 18.5ZM31.5 28.25C31.4982 28.8462 31.2606 29.4174 30.839 29.839C30.4174 30.2606 29.8462 30.4982 29.25 30.5H20.25C20.1028 30.4996 19.9589 30.5441 19.8375 30.6275L16.5 32.8475V31.25C16.5 31.0511 16.4209 30.8603 16.2803 30.7197C16.1397 30.5791 15.9489 30.5 15.75 30.5H12.75C12.1538 30.4982 11.5826 30.2606 11.161 29.839C10.7394 29.4174 10.5018 28.8462 10.5 28.25V22.25C10.5018 21.6538 10.7394 21.0826 11.161 20.661C11.5826 20.2394 12.1538 20.0018 12.75 20H29.25C29.8462 20.0018 30.4174 20.2394 30.839 20.661C31.2606 21.0826 31.4982 21.6538 31.5 22.25V28.25Z" fill="white"/>
<path d="M27 12.5C27.4142 12.5 27.75 12.1642 27.75 11.75C27.75 11.3358 27.4142 11 27 11C26.5858 11 26.25 11.3358 26.25 11.75C26.25 12.1642 26.5858 12.5 27 12.5Z" fill="white"/>
</svg>
