<svg width="149" height="176" viewBox="0 0 149 176" fill="none" xmlns="http://www.w3.org/2000/svg">
<g filter="url(#filter0_d_946_2193)">
<rect x="8" y="8" width="124.718" height="152" rx="19.4872" fill="#FEFEFE" shape-rendering="crispEdges"/>
<path d="M38.8828 110.088H40.2664C41.1628 110.088 41.8318 109.874 42.2736 109.445C42.7153 109.017 42.9361 108.438 42.9361 107.711C42.9361 106.996 42.7153 106.438 42.2736 106.035C41.8318 105.619 41.1823 105.411 40.3248 105.411H38.8828V110.088ZM36.4274 103.404H40.5392C42.0202 103.404 43.2024 103.807 44.0859 104.612C44.9823 105.418 45.4305 106.451 45.4305 107.711C45.4305 109.049 44.9693 110.114 44.0469 110.907C43.1375 111.686 41.9877 112.076 40.5977 112.076H38.8828V116.539H36.4274V103.404ZM49.4968 106.659V108.412C49.9515 107.191 50.7829 106.581 51.9911 106.581C52.2639 106.581 52.4848 106.6 52.6537 106.639V108.9C52.3549 108.77 52.0236 108.705 51.6598 108.705C51.0233 108.705 50.5036 108.965 50.1009 109.484C49.6981 110.004 49.4968 110.653 49.4968 111.433V116.539H47.1388L47.1583 106.659H49.4968ZM59.0755 112.29H57.8673C57.2567 112.29 56.789 112.42 56.4642 112.68C56.1394 112.927 55.977 113.245 55.977 113.635C55.977 114.466 56.4577 114.882 57.4191 114.882C57.9387 114.882 58.3414 114.733 58.6273 114.434C58.9261 114.122 59.0755 113.719 59.0755 113.226V112.29ZM54.2816 109.328V107.165C55.0221 106.711 56.0874 106.483 57.4775 106.483C60.1538 106.483 61.4919 107.73 61.4919 110.225V116.539H59.1729V115.35C58.7182 116.194 57.8608 116.617 56.6006 116.617C55.6652 116.617 54.9182 116.344 54.3596 115.798C53.8139 115.252 53.5411 114.564 53.5411 113.732C53.5411 112.797 53.8919 112.063 54.5934 111.53C55.295 110.998 56.3083 110.731 57.6334 110.731H59.0755V110.127C59.0755 109.582 58.9326 109.166 58.6467 108.88C58.3609 108.594 57.8738 108.451 57.1852 108.451C56.1329 108.451 55.165 108.744 54.2816 109.328ZM65.7759 111.628C65.8018 112.563 66.0812 113.317 66.6138 113.888C67.1594 114.46 67.8935 114.746 68.8159 114.746C69.6213 114.746 70.3683 114.525 71.0569 114.083V116.11C70.3683 116.513 69.5109 116.714 68.4846 116.714C66.9646 116.714 65.7304 116.233 64.782 115.272C63.8466 114.311 63.3789 113.096 63.3789 111.628C63.3919 110.186 63.8596 108.971 64.782 107.984C65.7174 106.996 66.9906 106.503 68.6015 106.503C69.5629 106.503 70.3813 106.685 71.0569 107.048V109.114C70.4073 108.698 69.6668 108.49 68.8353 108.49C67.9259 108.49 67.1919 108.776 66.6333 109.348C66.0747 109.919 65.7888 110.679 65.7759 111.628ZM75.9039 108.412V113.44C75.9039 113.856 76.0143 114.174 76.2351 114.395C76.456 114.603 76.7613 114.707 77.151 114.707C77.6447 114.707 78.0994 114.57 78.5151 114.298V116.305C78.0604 116.526 77.4758 116.636 76.7613 116.636C74.6307 116.636 73.5654 115.558 73.5654 113.401V108.412H72.0844V106.659H73.5654V104.281H75.9039V106.659H78.3592V108.412H75.9039ZM80.54 116.539V106.659H82.8784V116.539H80.54ZM80.3061 103.697C80.3061 103.307 80.4425 102.975 80.7154 102.703C80.9882 102.43 81.3195 102.293 81.7092 102.293C82.099 102.293 82.4302 102.43 82.7031 102.703C82.9759 102.975 83.1123 103.307 83.1123 103.697C83.1123 104.099 82.9759 104.437 82.7031 104.71C82.4302 104.983 82.099 105.119 81.7092 105.119C81.3195 105.119 80.9882 104.983 80.7154 104.71C80.4425 104.437 80.3061 104.099 80.3061 103.697ZM87.3754 111.628C87.4014 112.563 87.6807 113.317 88.2134 113.888C88.759 114.46 89.493 114.746 90.4154 114.746C91.2209 114.746 91.9679 114.525 92.6564 114.083V116.11C91.9679 116.513 91.1105 116.714 90.0841 116.714C88.5641 116.714 87.3299 116.233 86.3816 115.272C85.4462 114.311 84.9785 113.096 84.9785 111.628C84.9915 110.186 85.4592 108.971 86.3816 107.984C87.317 106.996 88.5901 106.503 90.2011 106.503C91.1624 106.503 91.9809 106.685 92.6564 107.048V109.114C92.0069 108.698 91.2664 108.49 90.4349 108.49C89.5255 108.49 88.7915 108.776 88.2329 109.348C87.6742 109.919 87.3884 110.679 87.3754 111.628ZM100.602 110.79V110.498C100.576 109.861 100.401 109.354 100.076 108.978C99.7639 108.588 99.3027 108.393 98.6921 108.393C98.1335 108.393 97.6463 108.601 97.2306 109.017C96.8279 109.419 96.568 110.01 96.4511 110.79H100.602ZM102.2 113.966V115.993C101.511 116.422 100.517 116.636 99.2183 116.636C97.6463 116.636 96.4056 116.168 95.4962 115.233C94.5868 114.298 94.1321 113.089 94.1321 111.608C94.1321 110.036 94.5609 108.802 95.4183 107.906C96.2757 107.009 97.3475 106.561 98.6337 106.561C99.9198 106.561 100.94 106.951 101.693 107.73C102.447 108.51 102.823 109.647 102.823 111.141C102.823 111.504 102.778 111.972 102.687 112.544H96.4901C96.659 113.258 97.0097 113.804 97.5424 114.181C98.088 114.557 98.7636 114.746 99.5691 114.746C100.608 114.746 101.485 114.486 102.2 113.966ZM25.6027 137.539V124.404H28.0581V137.539H25.6027ZM33.1877 127.659V129.354C33.7463 128.146 34.7596 127.542 36.2277 127.542C37.215 127.542 37.9945 127.84 38.5661 128.438C39.1377 129.036 39.4236 129.88 39.4236 130.971V137.539H37.0851V131.459C37.0851 130.809 36.9292 130.322 36.6174 129.997C36.3056 129.659 35.8834 129.49 35.3507 129.49C34.7401 129.49 34.227 129.731 33.8112 130.211C33.3955 130.679 33.1877 131.355 33.1877 132.238V137.539H30.8492V127.659H33.1877ZM44.713 129.412V134.44C44.713 134.856 44.8234 135.174 45.0442 135.395C45.2651 135.603 45.5704 135.707 45.9601 135.707C46.4538 135.707 46.9085 135.57 47.3242 135.298V137.305C46.8695 137.526 46.2849 137.636 45.5704 137.636C43.4398 137.636 42.3745 136.558 42.3745 134.401V129.412H40.8935V127.659H42.3745V125.281H44.713V127.659H47.1683V129.412H44.713ZM55.1952 131.79V131.498C55.1692 130.861 54.9939 130.354 54.6691 129.978C54.3573 129.588 53.8961 129.393 53.2855 129.393C52.7269 129.393 52.2397 129.601 51.8239 130.017C51.4212 130.419 51.1614 131.01 51.0445 131.79H55.1952ZM56.7932 134.966V136.993C56.1046 137.422 55.1108 137.636 53.8116 137.636C52.2397 137.636 50.999 137.168 50.0896 136.233C49.1802 135.298 48.7255 134.089 48.7255 132.608C48.7255 131.036 49.1542 129.802 50.0116 128.906C50.8691 128.009 51.9409 127.561 53.227 127.561C54.5132 127.561 55.533 127.951 56.2865 128.73C57.04 129.51 57.4168 130.647 57.4168 132.141C57.4168 132.504 57.3713 132.972 57.2804 133.544H51.0834C51.2523 134.258 51.6031 134.804 52.1357 135.181C52.6814 135.557 53.3569 135.746 54.1624 135.746C55.2017 135.746 56.0786 135.486 56.7932 134.966ZM61.9046 127.659V129.412C62.3593 128.191 63.1908 127.581 64.399 127.581C64.6718 127.581 64.8926 127.6 65.0615 127.639V129.9C64.7627 129.77 64.4314 129.705 64.0677 129.705C63.4311 129.705 62.9114 129.965 62.5087 130.484C62.106 131.004 61.9046 131.653 61.9046 132.433V137.539H59.5467L59.5661 127.659H61.9046ZM68.989 137.539L65.4228 127.659H67.8782L69.1838 131.848C69.4437 132.667 69.6645 133.401 69.8464 134.05C70.0283 134.687 70.1452 135.122 70.1972 135.356L70.2556 135.707C70.3855 134.979 70.7558 133.693 71.3664 131.848L72.7305 127.659H75.1469L71.5223 137.539H68.989ZM76.7529 137.539V127.659H79.0914V137.539H76.7529ZM76.5191 124.697C76.5191 124.307 76.6555 123.975 76.9283 123.703C77.2011 123.43 77.5324 123.293 77.9222 123.293C78.3119 123.293 78.6432 123.43 78.916 123.703C79.1888 123.975 79.3252 124.307 79.3252 124.697C79.3252 125.099 79.1888 125.437 78.916 125.71C78.6432 125.983 78.3119 126.119 77.9222 126.119C77.5324 126.119 77.2011 125.983 76.9283 125.71C76.6555 125.437 76.5191 125.099 76.5191 124.697ZM87.6612 131.79V131.498C87.6352 130.861 87.4598 130.354 87.135 129.978C86.8232 129.588 86.362 129.393 85.7514 129.393C85.1928 129.393 84.7056 129.601 84.2899 130.017C83.8872 130.419 83.6273 131.01 83.5104 131.79H87.6612ZM89.2591 134.966V136.993C88.5706 137.422 87.5767 137.636 86.2776 137.636C84.7056 137.636 83.4649 137.168 82.5555 136.233C81.6461 135.298 81.1914 134.089 81.1914 132.608C81.1914 131.036 81.6201 129.802 82.4776 128.906C83.335 128.009 84.4068 127.561 85.693 127.561C86.9791 127.561 87.999 127.951 88.7525 128.73C89.506 129.51 89.8827 130.647 89.8827 132.141C89.8827 132.504 89.8372 132.972 89.7463 133.544H83.5494C83.7183 134.258 84.069 134.804 84.6017 135.181C85.1473 135.557 85.8229 135.746 86.6284 135.746C87.6677 135.746 88.5446 135.486 89.2591 134.966ZM94.1367 137.539L91.0187 127.659H93.4546L94.3511 130.913C94.6109 131.848 94.8252 132.686 94.9941 133.427C95.176 134.154 95.2864 134.648 95.3254 134.908L95.4034 135.298C95.5333 134.505 95.91 133.044 96.5336 130.913L97.4885 127.659H99.6126L100.567 130.913C100.853 131.874 101.087 132.725 101.269 133.466C101.464 134.193 101.587 134.68 101.639 134.927L101.698 135.317C101.828 134.551 102.211 133.083 102.847 130.913L103.783 127.659H106.121L102.984 137.539H100.451L99.5736 134.304C99.3398 133.459 99.1384 132.693 98.9695 132.004C98.8006 131.303 98.6902 130.822 98.6382 130.562L98.5603 130.153C98.3914 131.01 98.0536 132.394 97.5469 134.304L96.67 137.539H94.1367ZM113.542 127.97V130.036C112.892 129.646 112.08 129.451 111.106 129.451C110.703 129.451 110.385 129.542 110.151 129.724C109.93 129.893 109.82 130.114 109.82 130.387C109.82 130.491 109.833 130.588 109.859 130.679C109.898 130.77 109.956 130.861 110.034 130.952C110.125 131.03 110.209 131.101 110.287 131.166C110.365 131.231 110.476 131.303 110.619 131.381C110.762 131.446 110.885 131.504 110.989 131.556C111.093 131.608 111.236 131.673 111.418 131.751C111.599 131.829 111.742 131.894 111.846 131.946C112.535 132.284 113.08 132.66 113.483 133.076C113.886 133.492 114.087 134.031 114.087 134.693C114.087 135.616 113.756 136.337 113.093 136.857C112.431 137.376 111.547 137.636 110.443 137.636C109.222 137.636 108.235 137.435 107.481 137.032V134.888C108.352 135.473 109.293 135.765 110.307 135.765C110.736 135.765 111.067 135.687 111.301 135.531C111.547 135.363 111.671 135.135 111.671 134.849C111.671 134.68 111.632 134.531 111.554 134.401C111.476 134.258 111.327 134.122 111.106 133.992C110.885 133.862 110.71 133.771 110.58 133.719C110.463 133.654 110.222 133.544 109.859 133.388C109.82 133.375 109.787 133.362 109.761 133.349C109.748 133.336 109.722 133.323 109.683 133.31C109.644 133.297 109.612 133.284 109.586 133.271C108.144 132.621 107.423 131.686 107.423 130.465C107.423 129.555 107.767 128.841 108.456 128.321C109.144 127.801 110.008 127.542 111.047 127.542C112.048 127.542 112.879 127.685 113.542 127.97Z" fill="#2A2A2A"/>
<path d="M78.1056 51.2723C75.3038 50.738 72.4147 50.738 69.613 51.2723C68.7425 51.4365 68.0721 52.0859 67.927 52.9014L67.8231 53.5016C66.9483 58.4415 66.9483 63.4812 67.8231 68.4211L67.929 69.0231C68.0721 69.8368 68.7425 70.4844 69.613 70.6504C72.4164 71.185 75.3041 71.185 78.1056 70.6504C78.976 70.4862 79.6445 69.8368 79.7916 69.0213L79.8955 68.4211C80.7718 63.4808 80.7718 58.4419 79.8955 53.5016L79.7896 52.8996C79.7187 52.5017 79.5198 52.1331 79.2191 51.8426C78.9185 51.5521 78.5302 51.3532 78.1056 51.2723Z" fill="#2A2A2A"/>
<path d="M59.9304 64.1664C60.1217 64.1411 60.3165 64.1512 60.5036 64.1961C60.6907 64.2409 60.8665 64.3196 61.0209 64.4277C61.1753 64.5358 61.3052 64.6712 61.4034 64.826C61.5015 64.9809 61.5659 65.1523 61.5929 65.3303L62.4751 71.1317C62.7142 72.697 64.0493 73.923 65.7353 74.1236C71.1304 74.764 76.5883 74.764 81.9834 74.1236C82.804 74.0261 83.5674 73.6806 84.1565 73.14C84.7455 72.5995 85.1274 71.8939 85.2436 71.1317L86.1258 65.3303C86.1528 65.1523 86.2173 64.981 86.3154 64.8262C86.4136 64.6714 86.5436 64.536 86.698 64.428C86.8523 64.3199 87.0281 64.2411 87.2152 64.1963C87.4022 64.1514 87.597 64.1412 87.7882 64.1664C87.9795 64.1915 88.1636 64.2515 88.33 64.3429C88.4964 64.4342 88.6418 64.5552 88.7579 64.6989C88.8741 64.8425 88.9587 65.006 89.0069 65.1801C89.0551 65.3542 89.066 65.5354 89.039 65.7134L88.1548 71.5148C87.9485 72.8708 87.2693 74.1262 86.2215 75.088C85.1738 76.0498 83.8157 76.6647 82.3559 76.8383C80.0229 77.1156 77.6763 77.2761 75.3297 77.3254V84.6774C75.3297 85.0403 75.1747 85.3884 74.899 85.645C74.6233 85.9015 74.2493 86.0457 73.8593 86.0457C73.4694 86.0457 73.0954 85.9015 72.8196 85.645C72.5439 85.3884 72.389 85.0403 72.389 84.6774V77.3254C70.0394 77.2777 67.6941 77.1151 65.3628 76.8383C63.903 76.6647 62.5448 76.0498 61.4971 75.088C60.4494 74.1262 59.7702 72.8708 59.5638 71.5148L58.6816 65.7134C58.6268 65.3542 58.7275 64.9894 58.9617 64.6993C59.1959 64.4091 59.5444 64.2175 59.9304 64.1664Z" fill="#2A2A2A"/>
<circle cx="35.6152" cy="36" r="11.5" stroke="black"/>
<circle cx="35.6152" cy="36" r="9" fill="#2A2A2A"/>
</g>
<defs>
<filter id="filter0_d_946_2193" x="0.205128" y="0.205128" width="148.102" height="175.385" filterUnits="userSpaceOnUse" color-interpolation-filters="sRGB">
<feFlood flood-opacity="0" result="BackgroundImageFix"/>
<feColorMatrix in="SourceAlpha" type="matrix" values="0 0 0 0 0 0 0 0 0 0 0 0 0 0 0 0 0 0 127 0" result="hardAlpha"/>
<feOffset dx="3.89744" dy="3.89744"/>
<feGaussianBlur stdDeviation="5.84615"/>
<feComposite in2="hardAlpha" operator="out"/>
<feColorMatrix type="matrix" values="0 0 0 0 0.683333 0 0 0 0 0.674792 0 0 0 0 0.674792 0 0 0 0.5 0"/>
<feBlend mode="normal" in2="BackgroundImageFix" result="effect1_dropShadow_946_2193"/>
<feBlend mode="normal" in="SourceGraphic" in2="effect1_dropShadow_946_2193" result="shape"/>
</filter>
</defs>
</svg>
