<svg width="149" height="176" viewBox="0 0 149 176" fill="none" xmlns="http://www.w3.org/2000/svg">
<g filter="url(#filter0_d_946_2164)">
<rect x="8" y="8" width="124.718" height="152" rx="19.4872" fill="#FEFEFE" shape-rendering="crispEdges"/>
<path d="M43.2911 109.394C43.2911 110.771 43.6159 111.862 44.2655 112.668C44.9151 113.473 45.7855 113.876 46.8768 113.876C47.9811 113.876 48.8515 113.48 49.4881 112.687C50.1246 111.882 50.4429 110.784 50.4429 109.394C50.4429 108.004 50.1246 106.906 49.4881 106.101C48.8515 105.295 47.9746 104.892 46.8573 104.892C45.753 104.892 44.8826 105.295 44.246 106.101C43.6094 106.906 43.2911 108.004 43.2911 109.394ZM53.7947 117.793L51.0275 118.865L47.1691 116.136H46.8768C44.993 116.136 43.486 115.519 42.3558 114.285C41.2255 113.051 40.6604 111.421 40.6604 109.394C40.6604 107.354 41.219 105.717 42.3363 104.483C43.4665 103.249 44.9735 102.632 46.8573 102.632C48.767 102.632 50.2805 103.249 51.3978 104.483C52.5151 105.704 53.0737 107.341 53.0737 109.394C53.0737 110.823 52.7879 112.064 52.2163 113.116C51.6446 114.168 50.8392 114.954 49.7999 115.474L53.7947 117.793ZM61.4048 106.12H63.7627V116H61.4048V114.383C60.8851 115.526 59.8718 116.097 58.3648 116.097C57.3644 116.097 56.5849 115.812 56.0263 115.24C55.4677 114.668 55.1884 113.856 55.1884 112.804V106.12H57.5268V112.258C57.5268 112.882 57.6762 113.356 57.975 113.681C58.2868 114.006 58.709 114.168 59.2417 114.168C59.9173 114.168 60.4434 113.941 60.8202 113.486C61.2099 113.031 61.4048 112.343 61.4048 111.421V106.12ZM66.4019 116V106.12H68.7403V116H66.4019ZM66.168 103.158C66.168 102.768 66.3044 102.437 66.5772 102.164C66.8501 101.891 67.1814 101.755 67.5711 101.755C67.9608 101.755 68.2921 101.891 68.5649 102.164C68.8378 102.437 68.9742 102.768 68.9742 103.158C68.9742 103.561 68.8378 103.898 68.5649 104.171C68.2921 104.444 67.9608 104.581 67.5711 104.581C67.1814 104.581 66.8501 104.444 66.5772 104.171C66.3044 103.898 66.168 103.561 66.168 103.158ZM78.187 106.12V107.757L73.5881 114.11H78.4404V116H70.9183V114.266L75.4978 107.991H71.0937V106.12H78.187ZM87.3217 106.12V107.757L82.7227 114.11H87.575V116H80.0529V114.266L84.6324 107.991H80.2283V106.12H87.3217ZM95.5793 110.251V109.959C95.5534 109.322 95.378 108.816 95.0532 108.439C94.7414 108.049 94.2802 107.854 93.6696 107.854C93.111 107.854 92.6238 108.062 92.2081 108.478C91.8053 108.881 91.5455 109.472 91.4286 110.251H95.5793ZM97.1773 113.428V115.454C96.4887 115.883 95.4949 116.097 94.1958 116.097C92.6238 116.097 91.3831 115.63 90.4737 114.694C89.5643 113.759 89.1096 112.551 89.1096 111.07C89.1096 109.498 89.5383 108.264 90.3958 107.367C91.2532 106.471 92.325 106.023 93.6111 106.023C94.8973 106.023 95.9171 106.412 96.6706 107.192C97.4241 107.971 97.8009 109.108 97.8009 110.602C97.8009 110.966 97.7554 111.434 97.6645 112.005H91.4676C91.6364 112.72 91.9872 113.265 92.5199 113.642C93.0655 114.019 93.7411 114.207 94.5465 114.207C95.5858 114.207 96.4628 113.947 97.1773 113.428ZM105.855 106.432V108.497C105.205 108.108 104.393 107.913 103.419 107.913C103.016 107.913 102.698 108.004 102.464 108.186C102.243 108.355 102.133 108.575 102.133 108.848C102.133 108.952 102.146 109.05 102.172 109.141C102.211 109.231 102.269 109.322 102.347 109.413C102.438 109.491 102.523 109.563 102.601 109.628C102.678 109.693 102.789 109.764 102.932 109.842C103.075 109.907 103.198 109.965 103.302 110.017C103.406 110.069 103.549 110.134 103.731 110.212C103.913 110.29 104.056 110.355 104.159 110.407C104.848 110.745 105.394 111.122 105.796 111.537C106.199 111.953 106.401 112.492 106.401 113.155C106.401 114.077 106.069 114.798 105.407 115.318C104.744 115.838 103.861 116.097 102.756 116.097C101.535 116.097 100.548 115.896 99.7944 115.493V113.35C100.665 113.934 101.607 114.227 102.62 114.227C103.049 114.227 103.38 114.149 103.614 113.993C103.861 113.824 103.984 113.597 103.984 113.311C103.984 113.142 103.945 112.992 103.867 112.863C103.789 112.72 103.64 112.583 103.419 112.453C103.198 112.323 103.023 112.232 102.893 112.181C102.776 112.116 102.536 112.005 102.172 111.849C102.133 111.836 102.1 111.823 102.074 111.81C102.061 111.797 102.035 111.784 101.996 111.771C101.957 111.758 101.925 111.745 101.899 111.732C100.457 111.083 99.7359 110.147 99.7359 108.926C99.7359 108.017 100.08 107.302 100.769 106.783C101.457 106.263 102.321 106.003 103.361 106.003C104.361 106.003 105.192 106.146 105.855 106.432Z" fill="#2A2A2A"/>
<path d="M76.2054 73.7693C76.6196 73.7693 76.9791 73.6168 77.2841 73.3118C77.589 73.0068 77.741 72.6478 77.7401 72.2347C77.7401 71.8206 77.5876 71.4615 77.2826 71.1575C76.9776 70.8535 76.6186 70.701 76.2054 70.7001C75.7913 70.7001 75.4318 70.8525 75.1268 71.1575C74.8219 71.4625 74.6699 71.8215 74.6708 72.2347C74.6708 72.6488 74.8233 73.0083 75.1283 73.3133C75.4333 73.6183 75.7923 73.7703 76.2054 73.7693ZM76.2054 69.0924C76.4734 69.0924 76.7233 68.9949 76.9552 68.8001C77.1871 68.6052 77.3269 68.3494 77.3747 68.0327C77.4234 67.7404 77.5267 67.4725 77.6845 67.2289C77.8424 66.9853 78.1288 66.6565 78.5439 66.2424C79.2747 65.5116 79.7619 64.9206 80.0054 64.4695C80.249 64.0184 80.3708 63.4888 80.3708 62.8808C80.3708 61.7847 79.9869 60.8892 79.2191 60.1945C78.4513 59.4998 77.4468 59.1529 76.2054 59.1539C75.4016 59.1539 74.6708 59.3366 74.0131 59.702C73.3555 60.0674 72.8317 60.5911 72.442 61.2731C72.2958 61.5167 72.2837 61.7725 72.4054 62.0404C72.5272 62.3084 72.7343 62.5033 73.0266 62.6251C73.2946 62.7469 73.5567 62.759 73.8129 62.6616C74.0692 62.5642 74.2821 62.3936 74.4516 62.1501C74.6708 61.8334 74.9266 61.5961 75.2189 61.4383C75.5112 61.2804 75.8401 61.201 76.2054 61.2001C76.7901 61.2001 77.2651 61.3647 77.6304 61.6941C77.9958 62.0234 78.1785 62.4677 78.1785 63.027C78.1785 63.368 78.0811 63.691 77.8862 63.996C77.6913 64.301 77.3503 64.6844 76.8631 65.1462C76.1567 65.7552 75.7061 66.2243 75.5112 66.5537C75.3163 66.883 75.1946 67.3638 75.1458 67.9962C75.1215 68.2885 75.2131 68.5443 75.4206 68.7635C75.6281 68.9827 75.8898 69.0924 76.2054 69.0924ZM67.4362 78.1539C66.6324 78.1539 65.944 77.8674 65.3711 77.2945C64.7981 76.7216 64.5122 76.0337 64.5131 75.2308V57.6924C64.5131 56.8885 64.7996 56.2001 65.3725 55.6272C65.9455 55.0543 66.6334 54.7683 67.4362 54.7693H84.9747C85.7785 54.7693 86.4669 55.0558 87.0398 55.6287C87.6128 56.2016 87.8987 56.8895 87.8978 57.6924V75.2308C87.8978 76.0347 87.6113 76.7231 87.0384 77.296C86.4654 77.8689 85.7775 78.1549 84.9747 78.1539H67.4362ZM61.5901 84C60.7862 84 60.0978 83.7136 59.5249 83.1407C58.952 82.5677 58.666 81.8798 58.667 81.077V62.077C58.667 61.6629 58.8073 61.3155 59.0879 61.0349C59.3685 60.7543 59.7154 60.6145 60.1285 60.6154C60.5426 60.6154 60.89 60.7557 61.1706 61.0364C61.4512 61.317 61.591 61.6639 61.5901 62.077V81.077H80.5901C81.0042 81.077 81.3515 81.2173 81.6321 81.4979C81.9128 81.7785 82.0526 82.1254 82.0516 82.5385C82.0516 82.9526 81.9113 83.3 81.6307 83.5806C81.3501 83.8612 81.0032 84.001 80.5901 84H61.5901Z" fill="#2A2A2A"/>
<circle cx="36.3086" cy="36" r="11.5" stroke="black"/>
<circle cx="36.3086" cy="36" r="9" fill="#2A2A2A"/>
</g>
<defs>
<filter id="filter0_d_946_2164" x="0.205128" y="0.205128" width="148.102" height="175.385" filterUnits="userSpaceOnUse" color-interpolation-filters="sRGB">
<feFlood flood-opacity="0" result="BackgroundImageFix"/>
<feColorMatrix in="SourceAlpha" type="matrix" values="0 0 0 0 0 0 0 0 0 0 0 0 0 0 0 0 0 0 127 0" result="hardAlpha"/>
<feOffset dx="3.89744" dy="3.89744"/>
<feGaussianBlur stdDeviation="5.84615"/>
<feComposite in2="hardAlpha" operator="out"/>
<feColorMatrix type="matrix" values="0 0 0 0 0.683333 0 0 0 0 0.674792 0 0 0 0 0.674792 0 0 0 0.5 0"/>
<feBlend mode="normal" in2="BackgroundImageFix" result="effect1_dropShadow_946_2164"/>
<feBlend mode="normal" in="SourceGraphic" in2="effect1_dropShadow_946_2164" result="shape"/>
</filter>
</defs>
</svg>
