<svg width="149" height="176" viewBox="0 0 149 176" fill="none" xmlns="http://www.w3.org/2000/svg">
<g filter="url(#filter0_d_47_238)">
<rect x="8" y="8" width="124.718" height="152" rx="19.4872" fill="#FEFEFE" shape-rendering="crispEdges"/>
<path d="M43.2906 109.394C43.2906 110.771 43.6154 111.862 44.265 112.668C44.9146 113.473 45.785 113.876 46.8763 113.876C47.9806 113.876 48.851 113.48 49.4876 112.687C50.1242 111.882 50.4424 110.784 50.4424 109.394C50.4424 108.004 50.1242 106.906 49.4876 106.101C48.851 105.295 47.9741 104.892 46.8568 104.892C45.7525 104.892 44.8821 105.295 44.2455 106.101C43.6089 106.906 43.2906 108.004 43.2906 109.394ZM53.7942 117.793L51.0271 118.865L47.1686 116.136H46.8763C44.9925 116.136 43.4855 115.519 42.3553 114.285C41.225 113.051 40.6599 111.421 40.6599 109.394C40.6599 107.354 41.2185 105.717 42.3358 104.483C43.466 103.249 44.973 102.632 46.8568 102.632C48.7665 102.632 50.28 103.249 51.3973 104.483C52.5146 105.704 53.0732 107.341 53.0732 109.394C53.0732 110.823 52.7874 112.064 52.2158 113.116C51.6442 114.168 50.8387 114.954 49.7994 115.474L53.7942 117.793ZM61.4043 106.12H63.7622V116H61.4043V114.383C60.8846 115.526 59.8713 116.097 58.3643 116.097C57.3639 116.097 56.5845 115.812 56.0258 115.24C55.4672 114.668 55.1879 113.856 55.1879 112.804V106.12H57.5263V112.258C57.5263 112.882 57.6757 113.356 57.9745 113.681C58.2863 114.006 58.7086 114.168 59.2412 114.168C59.9168 114.168 60.4429 113.941 60.8197 113.486C61.2094 113.031 61.4043 112.343 61.4043 111.421V106.12ZM66.4014 116V106.12H68.7398V116H66.4014ZM66.1675 103.158C66.1675 102.768 66.3039 102.437 66.5768 102.164C66.8496 101.891 67.1809 101.755 67.5706 101.755C67.9604 101.755 68.2916 101.891 68.5645 102.164C68.8373 102.437 68.9737 102.768 68.9737 103.158C68.9737 103.561 68.8373 103.898 68.5645 104.171C68.2916 104.444 67.9604 104.581 67.5706 104.581C67.1809 104.581 66.8496 104.444 66.5768 104.171C66.3039 103.898 66.1675 103.561 66.1675 103.158ZM78.1866 106.12V107.757L73.5876 114.11H78.4399V116H70.9178V114.266L75.4973 107.991H71.0932V106.12H78.1866ZM87.3212 106.12V107.757L82.7222 114.11H87.5745V116H80.0524V114.266L84.6319 107.991H80.2278V106.12H87.3212ZM95.5789 110.251V109.959C95.5529 109.322 95.3775 108.816 95.0527 108.439C94.7409 108.049 94.2797 107.854 93.6691 107.854C93.1105 107.854 92.6233 108.062 92.2076 108.478C91.8048 108.881 91.545 109.472 91.4281 110.251H95.5789ZM97.1768 113.428V115.454C96.4883 115.883 95.4944 116.097 94.1953 116.097C92.6233 116.097 91.3826 115.63 90.4732 114.694C89.5638 113.759 89.1091 112.551 89.1091 111.07C89.1091 109.498 89.5378 108.264 90.3953 107.367C91.2527 106.471 92.3245 106.023 93.6107 106.023C94.8968 106.023 95.9166 106.412 96.6701 107.192C97.4236 107.971 97.8004 109.108 97.8004 110.602C97.8004 110.966 97.7549 111.434 97.664 112.005H91.4671C91.636 112.72 91.9867 113.265 92.5194 113.642C93.065 114.019 93.7406 114.207 94.546 114.207C95.5854 114.207 96.4623 113.947 97.1768 113.428ZM105.854 106.432V108.497C105.205 108.108 104.393 107.913 103.418 107.913C103.016 107.913 102.697 108.004 102.464 108.186C102.243 108.355 102.132 108.575 102.132 108.848C102.132 108.952 102.145 109.05 102.171 109.141C102.21 109.231 102.269 109.322 102.347 109.413C102.438 109.491 102.522 109.563 102.6 109.628C102.678 109.693 102.788 109.764 102.931 109.842C103.074 109.907 103.198 109.965 103.302 110.017C103.405 110.069 103.548 110.134 103.73 110.212C103.912 110.29 104.055 110.355 104.159 110.407C104.848 110.745 105.393 111.122 105.796 111.537C106.199 111.953 106.4 112.492 106.4 113.155C106.4 114.077 106.069 114.798 105.406 115.318C104.744 115.838 103.86 116.097 102.756 116.097C101.535 116.097 100.547 115.896 99.7939 115.493V113.35C100.664 113.934 101.606 114.227 102.62 114.227C103.048 114.227 103.38 114.149 103.613 113.993C103.86 113.824 103.984 113.597 103.984 113.311C103.984 113.142 103.945 112.992 103.867 112.863C103.789 112.72 103.639 112.583 103.418 112.453C103.198 112.323 103.022 112.232 102.892 112.181C102.775 112.116 102.535 112.005 102.171 111.849C102.132 111.836 102.1 111.823 102.074 111.81C102.061 111.797 102.035 111.784 101.996 111.771C101.957 111.758 101.924 111.745 101.898 111.732C100.456 111.083 99.7354 110.147 99.7354 108.926C99.7354 108.017 100.08 107.302 100.768 106.783C101.457 106.263 102.321 106.003 103.36 106.003C104.36 106.003 105.192 106.146 105.854 106.432Z" fill="#2A2A2A"/>
<path d="M76.2053 73.7693C76.6194 73.7693 76.9789 73.6168 77.2839 73.3118C77.5889 73.0068 77.7409 72.6478 77.7399 72.2347C77.7399 71.8206 77.5874 71.4615 77.2824 71.1575C76.9774 70.8535 76.6184 70.701 76.2053 70.7001C75.7912 70.7001 75.4316 70.8525 75.1267 71.1575C74.8217 71.4625 74.6697 71.8215 74.6707 72.2347C74.6707 72.6488 74.8231 73.0083 75.1281 73.3133C75.4331 73.6183 75.7921 73.7703 76.2053 73.7693ZM76.2053 69.0924C76.4732 69.0924 76.7231 68.9949 76.955 68.8001C77.1869 68.6052 77.3268 68.3494 77.3745 68.0327C77.4232 67.7404 77.5265 67.4725 77.6843 67.2289C77.8422 66.9853 78.1287 66.6565 78.5437 66.2424C79.2745 65.5116 79.7617 64.9206 80.0053 64.4695C80.2489 64.0184 80.3706 63.4888 80.3706 62.8808C80.3706 61.7847 79.9868 60.8892 79.219 60.1945C78.4512 59.4998 77.4466 59.1529 76.2053 59.1539C75.4014 59.1539 74.6707 59.3366 74.013 59.702C73.3553 60.0674 72.8315 60.5911 72.4418 61.2731C72.2957 61.5167 72.2835 61.7725 72.4053 62.0404C72.5271 62.3084 72.7341 62.5033 73.0264 62.6251C73.2944 62.7469 73.5565 62.759 73.8127 62.6616C74.069 62.5642 74.2819 62.3936 74.4514 62.1501C74.6707 61.8334 74.9264 61.5961 75.2187 61.4383C75.511 61.2804 75.8399 61.201 76.2053 61.2001C76.7899 61.2001 77.2649 61.3647 77.6303 61.6941C77.9957 62.0234 78.1783 62.4677 78.1783 63.027C78.1783 63.368 78.0809 63.691 77.886 63.996C77.6912 64.301 77.3501 64.6844 76.863 65.1462C76.1565 65.7552 75.7059 66.2243 75.511 66.5537C75.3162 66.883 75.1944 67.3638 75.1457 67.9962C75.1213 68.2885 75.2129 68.5443 75.4204 68.7635C75.628 68.9827 75.8896 69.0924 76.2053 69.0924ZM67.436 78.1539C66.6322 78.1539 65.9438 77.8674 65.3709 77.2945C64.798 76.7216 64.512 76.0337 64.513 75.2308V57.6924C64.513 56.8885 64.7994 56.2001 65.3723 55.6272C65.9453 55.0543 66.6332 54.7683 67.436 54.7693H84.9745C85.7783 54.7693 86.4667 55.0558 87.0396 55.6287C87.6126 56.2016 87.8985 56.8895 87.8976 57.6924V75.2308C87.8976 76.0347 87.6111 76.7231 87.0382 77.296C86.4653 77.8689 85.7774 78.1549 84.9745 78.1539H67.436ZM61.5899 84C60.786 84 60.0977 83.7136 59.5247 83.1407C58.9518 82.5677 58.6658 81.8798 58.6668 81.077V62.077C58.6668 61.6629 58.8071 61.3155 59.0877 61.0349C59.3683 60.7543 59.7152 60.6145 60.1283 60.6154C60.5425 60.6154 60.8898 60.7557 61.1704 61.0364C61.451 61.317 61.5909 61.6639 61.5899 62.077V81.077H80.5899C81.004 81.077 81.3513 81.2173 81.632 81.4979C81.9126 81.7785 82.0524 82.1254 82.0514 82.5385C82.0514 82.9526 81.9111 83.3 81.6305 83.5806C81.3499 83.8612 81.003 84.001 80.5899 84H61.5899Z" fill="#2A2A2A"/>
<circle cx="36.3081" cy="36" r="11.5" stroke="black"/>
<circle cx="36.3081" cy="36" r="10" fill="#FEFEFE"/>
</g>
<defs>
<filter id="filter0_d_47_238" x="0.205128" y="0.205128" width="148.103" height="175.385" filterUnits="userSpaceOnUse" color-interpolation-filters="sRGB">
<feFlood flood-opacity="0" result="BackgroundImageFix"/>
<feColorMatrix in="SourceAlpha" type="matrix" values="0 0 0 0 0 0 0 0 0 0 0 0 0 0 0 0 0 0 127 0" result="hardAlpha"/>
<feOffset dx="3.89744" dy="3.89744"/>
<feGaussianBlur stdDeviation="5.84615"/>
<feComposite in2="hardAlpha" operator="out"/>
<feColorMatrix type="matrix" values="0 0 0 0 0.683333 0 0 0 0 0.674792 0 0 0 0 0.674792 0 0 0 0.5 0"/>
<feBlend mode="normal" in2="BackgroundImageFix" result="effect1_dropShadow_47_238"/>
<feBlend mode="normal" in="SourceGraphic" in2="effect1_dropShadow_47_238" result="shape"/>
</filter>
</defs>
</svg>
