<svg width="24" height="19" viewBox="0 0 24 19" fill="none" xmlns="http://www.w3.org/2000/svg">
<g clip-path="url(#clip0_1_665)">
<path d="M23.0766 2.54834C22.2472 2.91351 21.3685 3.15456 20.4689 3.26372C21.4161 2.69442 22.1253 1.80161 22.4655 0.750185C21.5877 1.26249 20.6147 1.63542 19.5791 1.84311C18.8958 1.11243 17.9903 0.627804 17.0033 0.464494C16.0164 0.301183 15.0031 0.468323 14.1208 0.939961C13.2386 1.4116 12.5368 2.16134 12.1243 3.07276C11.7119 3.98418 11.6119 5.00628 11.84 5.98034C8.06459 5.80218 4.71844 3.98926 2.47906 1.24865C2.07179 1.94078 1.85936 2.73021 1.86429 3.53326C1.86429 5.11172 2.66736 6.49911 3.88398 7.31419C3.16293 7.29123 2.4578 7.09628 1.82736 6.74557V6.80188C1.82695 7.85085 2.18946 8.86767 2.85337 9.67981C3.51728 10.4919 4.44171 11.0494 5.46983 11.2576C4.80364 11.4361 4.1059 11.4629 3.42798 11.336C3.7199 12.2387 4.28628 13.0278 5.04812 13.5932C5.80995 14.1587 6.72926 14.4722 7.67782 14.4902C6.0712 15.751 4.08748 16.4353 2.04521 16.4333C1.68521 16.4333 1.32613 16.412 0.96521 16.3714C3.0474 17.7046 5.46845 18.4123 7.9409 18.4105C16.2984 18.4105 20.8631 11.4911 20.8631 5.50034C20.8631 5.30742 20.8631 5.11265 20.8492 4.9188C21.7409 4.27712 22.51 3.48047 23.12 2.5668L23.0766 2.54834Z" fill="#D9D9D9"/>
</g>
<defs>
<clipPath id="clip0_1_665">
<rect width="22.1548" height="18.4615" fill="white" transform="translate(0.96521 0.269287)"/>
</clipPath>
</defs>
</svg>
