<svg width="20" height="19" viewBox="0 0 20 19" fill="none" xmlns="http://www.w3.org/2000/svg">
<g clip-path="url(#clip0_1_673)">
<path d="M15.6485 18.7308C15.6485 10.6285 8.98231 3.9616 0.880005 3.9616V0.269287C11.0069 0.269287 19.3415 8.6039 19.3415 18.7308H15.6485ZM3.41154 13.6654C4.08319 13.6669 4.72689 13.9344 5.20167 14.4095C5.67645 14.8845 5.9436 15.5284 5.94462 16.2001C5.94198 16.8719 5.67333 17.5154 5.19746 17.9896C4.7216 18.4639 4.07725 18.7304 3.40539 18.7308C2.01077 18.7308 0.880005 17.597 0.880005 16.2001C0.880005 14.8031 2.01462 13.6662 3.41154 13.6654ZM13.1177 18.7308H9.52924C9.52924 13.9854 5.62539 10.0808 0.880005 10.0808V6.49236C7.59308 6.49236 13.1177 12.0185 13.1177 18.7308Z" fill="#D9D9D9"/>
</g>
<defs>
<clipPath id="clip0_1_673">
<rect width="18.4615" height="18.4615" fill="white" transform="translate(0.880005 0.269287)"/>
</clipPath>
</defs>
</svg>
