<svg width="23" height="17" viewBox="0 0 23 17" fill="none" xmlns="http://www.w3.org/2000/svg">
<g clip-path="url(#clip0_1_667)">
<path d="M21.803 3.15859C21.6747 2.6993 21.4298 2.28085 21.0922 1.94367C20.7546 1.60649 20.3356 1.362 19.8756 1.23382C18.1495 0.771986 11.2024 0.771986 11.2024 0.771986C11.2024 0.771986 4.27287 0.762768 2.52918 1.23382C2.06927 1.362 1.65025 1.60649 1.31261 1.94367C0.974977 2.28085 0.730151 2.6993 0.601797 3.15859C0.274585 4.92343 0.113268 6.71495 0.11995 8.50978C0.114531 10.2978 0.275843 12.0825 0.601797 13.8407C0.730151 14.3 0.974977 14.7184 1.31261 15.0556C1.65025 15.3928 2.06927 15.6373 2.52918 15.7655C4.25349 16.2282 11.2024 16.2282 11.2024 16.2282C11.2024 16.2282 18.131 16.2282 19.8756 15.7655C20.3356 15.6373 20.7546 15.3928 21.0922 15.0556C21.4298 14.7184 21.6747 14.3 21.803 13.8407C22.1222 12.0819 22.2767 10.2972 22.2646 8.50978C22.2779 6.71559 22.1234 4.92407 21.803 3.15859ZM8.98518 11.82V5.18937L14.7673 8.50978L8.98518 11.82Z" fill="#D9D9D9"/>
</g>
<defs>
<clipPath id="clip0_1_667">
<rect width="22.1446" height="15.4562" fill="white" transform="translate(0.119995 0.771973)"/>
</clipPath>
</defs>
</svg>
